<svg xmlns="http://www.w3.org/2000/svg" viewBox="0 0 500 500"><g id="freepik--Floor--inject-73"><path d="M464.07,469.16c0,.14-95.85.26-214.06.26s-214.08-.12-214.08-.26,95.83-.26,214.08-.26S464.07,469,464.07,469.16Z" style="fill:#263238"></path></g><g id="freepik--window-2--inject-73"><rect x="243.39" y="245.72" width="161.78" height="89.9" rx="6.38" style="fill:#fff"></rect><path d="M398.8,335.62s.43,0,1.25-.15a6.48,6.48,0,0,0,3.21-1.75,6.34,6.34,0,0,0,1.45-2.28,6.71,6.71,0,0,0,.36-1.53c0-.54,0-1.12,0-1.72,0-2.4,0-5.17,0-8.28,0-12.47-.05-30.49-.08-52.76,0-2.79,0-5.64,0-8.55v-4.42c0-1.49.15-3-.46-4.38a6.18,6.18,0,0,0-5.11-3.84c-.74-.05-1.56,0-2.34,0h-9.65l-41.82,0-95.82,0a6.12,6.12,0,0,0-5.14,2.78,6.05,6.05,0,0,0-1,2.84c-.05,1,0,2.1,0,3.14V291.7q0,12,0,23.6v11.44c0,.94,0,1.89,0,2.81a6.29,6.29,0,0,0,.7,2.58,6.22,6.22,0,0,0,4.14,3.11,12.57,12.57,0,0,0,2.69.14h39.07l36.44,0,52.76.08,14.34.05,3.73,0,1.28,0-1.28,0-3.73,0-14.34.05-52.76.08-36.44,0H251.18a13.24,13.24,0,0,1-2.79-.15,6.65,6.65,0,0,1-4.46-3.36,6.57,6.57,0,0,1-.77-2.78c0-1,0-1.88,0-2.83,0-3.77,0-7.59,0-11.44V291.7q0-12,0-24.45v-12.5c0-1.06,0-2.08,0-3.18a6.65,6.65,0,0,1,1-3.08,6.81,6.81,0,0,1,2.4-2.22,6.92,6.92,0,0,1,3.18-.81l95.82,0,41.82,0h9.65c.8,0,1.56,0,2.38,0a6.58,6.58,0,0,1,2.3.68,6.65,6.65,0,0,1,3.15,3.42,6.35,6.35,0,0,1,.46,2.28c0,.75,0,1.5,0,2.25v4.42q0,4.36,0,8.55c0,22.27-.07,40.29-.09,52.76,0,3.11,0,5.88,0,8.28,0,.6,0,1.17,0,1.73a6.72,6.72,0,0,1-.38,1.56,6.37,6.37,0,0,1-1.49,2.31,6.45,6.45,0,0,1-3.28,1.73,6,6,0,0,1-.94.1Z" style="fill:#263238"></path><path d="M299.76,277.49v1.12h-4.68v-6h4.56v1.12h-3.17V275h2.8v1.09h-2.8v1.4Z" style="fill:#263238"></path><path d="M306.42,272.57v6h-1.15l-3-3.67v3.67h-1.38v-6H302l3,3.67v-3.67Z" style="fill:#263238"></path><path d="M309.11,273.71h-1.94v-1.14h5.27v1.14H310.5v4.9h-1.39Z" style="fill:#263238"></path><path d="M317.87,277.49v1.12h-4.68v-6h4.57v1.12h-3.18V275h2.81v1.09h-2.81v1.4Z" style="fill:#263238"></path><path d="M322.84,278.61l-1.17-1.68h-1.28v1.68H319v-6h2.62c1.61,0,2.62.83,2.62,2.19a2,2,0,0,1-1.24,1.91l1.35,1.94Zm-1.31-4.9h-1.14v2.1h1.14c.85,0,1.28-.39,1.28-1.05S322.38,273.71,321.53,273.71Z" style="fill:#263238"></path><path d="M327.4,275.59a3.33,3.33,0,0,1,5.77-2.06l-.9.83a2,2,0,0,0-1.52-.71,1.94,1.94,0,0,0,0,3.87,1.92,1.92,0,0,0,1.52-.71l.9.83a3.32,3.32,0,0,1-5.77-2.05Z" style="fill:#263238"></path><path d="M333.61,275.59a3.31,3.31,0,1,1,3.3,3.13A3.12,3.12,0,0,1,333.61,275.59Zm5.19,0a1.89,1.89,0,1,0-1.89,1.93A1.85,1.85,0,0,0,338.8,275.59Z" style="fill:#263238"></path><path d="M341.28,272.57H344a3,3,0,1,1,0,6h-2.74Zm2.67,4.89a1.87,1.87,0,1,0,0-3.74h-1.27v3.74Z" style="fill:#263238"></path><path d="M353.09,277.49v1.12h-4.68v-6H353v1.12H349.8V275h2.81v1.09H349.8v1.4Z" style="fill:#263238"></path><rect x="258.18" y="288.26" width="22.59" height="30.77" rx="3.95" style="fill:#ebebeb"></rect><rect x="286.39" y="288.26" width="22.59" height="30.77" rx="3.95" style="fill:#ebebeb"></rect><rect x="314.6" y="288.26" width="22.59" height="30.77" rx="3.95" style="fill:#ebebeb"></rect><rect x="342.8" y="288.26" width="22.59" height="30.77" rx="3.95" style="fill:#ebebeb"></rect><rect x="371.01" y="288.26" width="22.59" height="30.77" rx="3.95" style="fill:#ebebeb"></rect><path d="M274.4,306c0,2.19-1.7,3.62-4,3.62-3.16,0-4.83-2.27-4.83-6,0-4.06,2.17-6.16,5.34-6.16a5.28,5.28,0,0,1,2.73.62l-.36.7a4.5,4.5,0,0,0-2.37-.55c-2.69,0-4.46,1.77-4.46,5.26a10.33,10.33,0,0,0,.1,1.44,3.77,3.77,0,0,1,3.83-2.47C272.78,302.46,274.4,303.86,274.4,306Zm-.88,0c0-1.71-1.23-2.83-3.26-2.83a3,3,0,0,0-3.33,2.87c0,1.41,1.18,2.81,3.43,2.81A2.85,2.85,0,0,0,273.52,306Z" style="fill:#B185A7"></path><path d="M302.3,306.23h-2.52v3.33h-.86v-3.33h-6.85v-.63l6.52-8.05h1l-6.4,7.91h5.77v-2.93h.84v2.93h2.52Z" style="fill:#B185A7"></path><path d="M331.39,311.27a52.83,52.83,0,0,1-10.47,0,52.83,52.83,0,0,1,10.47,0Z" style="fill:#B185A7"></path><circle cx="253.66" cy="254.7" r="2.45" style="fill:#263238"></circle><path d="M263.17,254.7a2.45,2.45,0,1,1-2.45-2.45A2.45,2.45,0,0,1,263.17,254.7Z" style="fill:#263238"></path><circle cx="267.65" cy="254.7" r="2.45" style="fill:#263238"></circle><path d="M405.42,261.6c0,.14-36.23.26-80.9.26s-80.9-.12-80.9-.26,36.21-.26,80.9-.26S405.42,261.45,405.42,261.6Z" style="fill:#263238"></path></g><g id="freepik--window-1--inject-73"><rect x="190.51" y="48.29" width="191.76" height="177.47" rx="6.56" style="fill:#fff"></rect><path d="M375.71,225.76l.47,0a6.65,6.65,0,0,0,1.37-.26,6.53,6.53,0,0,0,4-3.47,7.94,7.94,0,0,0,.62-3.94c0-1.49,0-3.13,0-4.9,0-3.54,0-7.63,0-12.23,0-18.4-.05-45-.09-77.92,0-16.45,0-34.46,0-53.81q0-7.24,0-14.73a6.33,6.33,0,0,0-4.1-5.54,9.42,9.42,0,0,0-3.69-.4H338.6l-141.51,0A6.33,6.33,0,0,0,193,50.09,6.26,6.26,0,0,0,190.84,54a19.37,19.37,0,0,0-.07,2.3v61.57c0,23.67,0,46.5,0,68.25q0,16.32,0,31.79c0,.64,0,1.3,0,1.91a6.5,6.5,0,0,0,.43,1.79,6.33,6.33,0,0,0,2.27,2.84,6.23,6.23,0,0,0,3.43,1.12h18.51l53.81,0,77.92.09,21.18,0,5.51,0,1.88,0-1.88,0-5.51,0-21.18.05-77.92.08-53.81,0H196.89a6.77,6.77,0,0,1-6.11-4.24,7.1,7.1,0,0,1-.47-1.92c-.05-.68,0-1.3,0-1.95q0-15.47,0-31.79c0-21.75,0-44.58,0-68.25q0-17.76,0-36.11V56.25a17.33,17.33,0,0,1,.08-2.37,6.67,6.67,0,0,1,2.28-4.18A6.88,6.88,0,0,1,197.09,48l141.51,0h35.63a9.76,9.76,0,0,1,3.85.44,6.78,6.78,0,0,1,4.39,5.93q0,7.5,0,14.76c0,19.35,0,37.36,0,53.81,0,32.9-.06,59.52-.08,77.92,0,4.6,0,8.69,0,12.23,0,1.77,0,3.41,0,4.9a8,8,0,0,1-.66,4,6.54,6.54,0,0,1-5.49,3.71Z" style="fill:#263238"></path><path d="M205,60.59a3.32,3.32,0,1,1-3.31-3.32A3.31,3.31,0,0,1,205,60.59Z" style="fill:#263238"></path><circle cx="211.35" cy="60.59" r="3.31" style="fill:#263238"></circle><circle cx="221.03" cy="60.59" r="3.31" style="fill:#263238"></circle><path d="M382.27,70c0,.15-42.93.26-95.88.26s-95.88-.11-95.88-.26,42.92-.26,95.88-.26S382.27,69.85,382.27,70Z" style="fill:#263238"></path><path d="M313.48,136.85s.07-.11.23-.31l.13-.17.13-.23a4.46,4.46,0,0,0,.29-.58c0-.11.1-.23.14-.36l.12-.42a3.56,3.56,0,0,0,.1-.47c0-.17.06-.34.07-.52a9.88,9.88,0,0,0-.12-2.49,22,22,0,0,0-2.28-6.43,50.66,50.66,0,0,0-4.91-7.63,78.08,78.08,0,0,0-7.31-8.22,89.82,89.82,0,0,0-9.61-8.19c-1.79-1.32-3.68-2.6-5.67-3.8a54.63,54.63,0,0,0-6.31-3.31,29.73,29.73,0,0,0-7-2.2,12.34,12.34,0,0,0-3.74-.09,6.81,6.81,0,0,0-1.81.52,5.31,5.31,0,0,0-1.51,1.11,5,5,0,0,0-.94,1.63,6.9,6.9,0,0,0-.31,1.86,12.55,12.55,0,0,0,.51,3.71,29.66,29.66,0,0,0,3,6.72,53.84,53.84,0,0,0,4,5.89c1.42,1.84,2.91,3.58,4.42,5.21a89,89,0,0,0,9.24,8.61,77.5,77.5,0,0,0,9,6.33,50.69,50.69,0,0,0,8.14,4,22.53,22.53,0,0,0,6.65,1.54,10.58,10.58,0,0,0,2.48-.17c.18,0,.34-.09.5-.13a4.15,4.15,0,0,0,.46-.15l.4-.17.35-.18a3.61,3.61,0,0,0,.54-.36l.21-.15.16-.15c.18-.18.28-.26.28-.26l-.27.27-.16.15-.2.16a3.28,3.28,0,0,1-.55.36L312,138l-.41.17a3,3,0,0,1-.45.15,4.25,4.25,0,0,1-.51.14,9.66,9.66,0,0,1-2.5.18,22.18,22.18,0,0,1-6.67-1.51,50.79,50.79,0,0,1-8.17-4,77.64,77.64,0,0,1-9-6.33,88,88,0,0,1-9.26-8.61c-1.51-1.63-3-3.37-4.43-5.21a55.71,55.71,0,0,1-4-5.91,29.72,29.72,0,0,1-3-6.75,12.47,12.47,0,0,1-.52-3.76,7.13,7.13,0,0,1,.32-1.89,5.39,5.39,0,0,1,1-1.69,5.14,5.14,0,0,1,1.56-1.14,7.13,7.13,0,0,1,1.85-.54,12.66,12.66,0,0,1,3.79.09,29.86,29.86,0,0,1,7.05,2.22,54,54,0,0,1,6.32,3.32c2,1.2,3.89,2.48,5.68,3.81a87.87,87.87,0,0,1,9.61,8.22,77.35,77.35,0,0,1,7.32,8.24,50.53,50.53,0,0,1,4.89,7.65,22.13,22.13,0,0,1,2.27,6.46,9.94,9.94,0,0,1,.1,2.51,3.89,3.89,0,0,1-.08.51,2.17,2.17,0,0,1-.1.47l-.12.43a3,3,0,0,1-.15.36,2.6,2.6,0,0,1-.3.58,1.26,1.26,0,0,1-.13.23l-.13.17Z" style="fill:#B185A7"></path><path d="M322.55,114.93l0-.38,0-.21c0-.08,0-.16-.05-.26a3.15,3.15,0,0,0-.17-.63c0-.11-.08-.24-.13-.36l-.2-.4a2.18,2.18,0,0,0-.24-.41,3.61,3.61,0,0,0-.29-.43,9.32,9.32,0,0,0-1.74-1.78,22.21,22.21,0,0,0-6-3.28,50.31,50.31,0,0,0-8.74-2.43A77.52,77.52,0,0,0,294,103.1a90.23,90.23,0,0,0-12.63.27c-2.21.21-4.47.52-6.76.95a53.29,53.29,0,0,0-6.91,1.73,29,29,0,0,0-6.7,3,12.21,12.21,0,0,0-2.85,2.42,6.76,6.76,0,0,0-1,1.59,5.07,5.07,0,0,0-.4,1.84,5.32,5.32,0,0,0,.39,1.84,7.1,7.1,0,0,0,1,1.59,12.54,12.54,0,0,0,2.86,2.43,29.62,29.62,0,0,0,6.7,3,56.75,56.75,0,0,0,6.91,1.73c2.29.43,4.55.73,6.76.94a88.85,88.85,0,0,0,12.63.28A80.59,80.59,0,0,0,305,125.51a50.31,50.31,0,0,0,8.74-2.43,22.77,22.77,0,0,0,6-3.28,9.62,9.62,0,0,0,1.74-1.78,3.7,3.7,0,0,0,.29-.44,2.18,2.18,0,0,0,.24-.41l.2-.39c.05-.13.09-.25.13-.37a3,3,0,0,0,.17-.63c0-.09,0-.17.05-.25l0-.21,0-.39s0,.13,0,.39l0,.21c0,.08,0,.16,0,.26a3.06,3.06,0,0,1-.16.63c0,.12-.08.24-.13.37l-.19.4a3.7,3.7,0,0,1-.24.42,4.65,4.65,0,0,1-.29.43,9.38,9.38,0,0,1-1.74,1.8,22.13,22.13,0,0,1-6,3.31,50.08,50.08,0,0,1-8.75,2.46,79,79,0,0,1-11,1.28,88.86,88.86,0,0,1-12.64-.26c-2.22-.21-4.49-.51-6.78-.94a57.52,57.52,0,0,1-6.93-1.73,29.43,29.43,0,0,1-6.73-3,12.49,12.49,0,0,1-2.89-2.45,7.08,7.08,0,0,1-1-1.63,4.61,4.61,0,0,1,0-3.8,7.44,7.44,0,0,1,1-1.63A12.74,12.74,0,0,1,261,109a29.7,29.7,0,0,1,6.74-3,53.84,53.84,0,0,1,6.92-1.73c2.3-.43,4.56-.73,6.78-.94A88.92,88.92,0,0,1,294,103a77.46,77.46,0,0,1,11,1.29,49.74,49.74,0,0,1,8.75,2.45,22.13,22.13,0,0,1,6,3.31,9.67,9.67,0,0,1,1.74,1.8,3.7,3.7,0,0,1,.29.44,3,3,0,0,1,.24.42l.19.39c.05.13.09.26.13.37a3.14,3.14,0,0,1,.16.64c0,.09,0,.18,0,.25l0,.22C322.55,114.8,322.55,114.93,322.55,114.93Z" style="fill:#B185A7"></path><path d="M310.53,87.66l-.33-.21-.18-.12a1.67,1.67,0,0,0-.23-.11,3.1,3.1,0,0,0-.6-.25c-.12,0-.24-.09-.37-.12l-.43-.09a3.54,3.54,0,0,0-.47-.07,4.41,4.41,0,0,0-.52,0,10,10,0,0,0-2.48.28,22.59,22.59,0,0,0-6.26,2.73,49.59,49.59,0,0,0-7.27,5.42,78,78,0,0,0-7.7,7.86,88.78,88.78,0,0,0-7.51,10.15C275,115,273.84,117,272.78,119a54,54,0,0,0-2.87,6.52,30.09,30.09,0,0,0-1.71,7.15,12.36,12.36,0,0,0,.17,3.74,7.11,7.11,0,0,0,.65,1.77,5.05,5.05,0,0,0,1.21,1.44,5.18,5.18,0,0,0,1.69.81,6.91,6.91,0,0,0,1.87.19,12.45,12.45,0,0,0,3.67-.77,29.68,29.68,0,0,0,6.5-3.44,54.59,54.59,0,0,0,5.6-4.4c1.74-1.55,3.37-3.15,4.89-4.77a89.82,89.82,0,0,0,7.95-9.81,78,78,0,0,0,5.7-9.41,50.18,50.18,0,0,0,3.44-8.39,22.41,22.41,0,0,0,1.07-6.75,9.3,9.3,0,0,0-.34-2.46c0-.18-.11-.34-.16-.5s-.11-.3-.18-.44l-.19-.39c-.07-.12-.15-.23-.21-.33a2.94,2.94,0,0,0-.4-.52l-.16-.2-.16-.14-.28-.26.29.25.16.14a1.62,1.62,0,0,1,.17.19,3.22,3.22,0,0,1,.4.52c.07.11.15.21.22.33l.19.4a2.53,2.53,0,0,1,.19.44c.05.16.12.32.16.5a9.27,9.27,0,0,1,.36,2.47,22.12,22.12,0,0,1-1.05,6.77,51.05,51.05,0,0,1-3.42,8.42,78.15,78.15,0,0,1-5.7,9.43,87.89,87.89,0,0,1-7.95,9.83c-1.52,1.63-3.15,3.24-4.9,4.79a55.09,55.09,0,0,1-5.61,4.41,29.51,29.51,0,0,1-6.53,3.46,12.66,12.66,0,0,1-3.71.78,7.32,7.32,0,0,1-1.92-.19,5.42,5.42,0,0,1-1.74-.85,5.22,5.22,0,0,1-1.25-1.48,7.3,7.3,0,0,1-.67-1.81,12.64,12.64,0,0,1-.16-3.78,29.61,29.61,0,0,1,1.72-7.19,54.17,54.17,0,0,1,2.87-6.53c1.07-2.08,2.22-4.06,3.41-5.94a90.09,90.09,0,0,1,7.54-10.15A77,77,0,0,1,291.32,95a50.47,50.47,0,0,1,7.3-5.42,22.42,22.42,0,0,1,6.29-2.7,9.63,9.63,0,0,1,2.49-.28c.18,0,.35,0,.52,0a3.46,3.46,0,0,1,.48.07l.43.09.37.13a3.08,3.08,0,0,1,.6.26,1.67,1.67,0,0,1,.23.11l.18.13Z" style="fill:#B185A7"></path><path d="M256.35,128.52a1.22,1.22,0,1,1-1.73,0A1.22,1.22,0,0,1,256.35,128.52Z" style="fill:#B185A7"></path><path d="M325.34,90.63a1.23,1.23,0,1,1-1.23-1.22A1.22,1.22,0,0,1,325.34,90.63Z" style="fill:#B185A7"></path><path d="M264.07,132.54a.31.31,0,1,1-.31-.31A.31.31,0,0,1,264.07,132.54Z" style="fill:#B185A7"></path><path d="M270.7,98.28a.31.31,0,1,1-.31-.31A.31.31,0,0,1,270.7,98.28Z" style="fill:#B185A7"></path><path d="M319.19,114.93a.31.31,0,0,1-.31.31.31.31,0,1,1,0-.62A.31.31,0,0,1,319.19,114.93Z" style="fill:#B185A7"></path><path d="M323.51,100.45a.31.31,0,0,1-.62,0,.31.31,0,0,1,.62,0Z" style="fill:#B185A7"></path><path d="M302.57,121.76h-3.84V100.85a8.93,8.93,0,1,0-17.86,0v20.91H277V100.85a12.77,12.77,0,1,1,25.54,0Z" style="fill:#B185A7"></path><g style="opacity:0.30000000000000004"><path d="M302.57,121.76h-3.84V100.85a8.93,8.93,0,1,0-17.86,0v20.91H277V100.85a12.77,12.77,0,1,1,25.54,0Z"></path></g><rect x="272.59" y="112.46" width="34.42" height="22.08" rx="2.25" style="fill:#B185A7"></rect><g style="opacity:0.30000000000000004"><path d="M292.68,120.63a2.88,2.88,0,1,0-3.66,2.75v4.3h1.56v-4.3A2.86,2.86,0,0,0,292.68,120.63Z"></path></g><path d="M274.43,132.45c-.08,0-.15-3.68-.15-8.22s.07-8.23.15-8.23.14,3.68.14,8.23S274.5,132.45,274.43,132.45Z" style="fill:#fafafa"></path><path d="M287.55,124.31s-.14,0-.34-.19a3.48,3.48,0,0,1-.74-.75,4,4,0,0,1,1.43-6.05,3.42,3.42,0,0,1,1-.35,1.06,1.06,0,0,1,.39,0,10.1,10.1,0,0,0-1.29.54,4,4,0,0,0-1.37,5.76A8.63,8.63,0,0,0,287.55,124.31Z" style="fill:#fafafa"></path><rect x="225.61" y="153.47" width="124.61" height="19.78" rx="9.32" style="fill:#f5f5f5"></rect><rect x="226.52" y="180.59" width="124.61" height="19.78" rx="9.32" style="fill:#f5f5f5"></rect><path d="M245.3,163.2v-2.86h1.19v2.82c0,1,.42,1.37,1.14,1.37s1.14-.4,1.14-1.37v-2.82h1.17v2.86a2.32,2.32,0,1,1-4.64,0Z" style="fill:#263238"></path><path d="M250.65,165.09l.37-.82a2.7,2.7,0,0,0,1.37.38c.53,0,.72-.14.72-.36,0-.64-2.37,0-2.37-1.55,0-.75.67-1.28,1.82-1.28a3.21,3.21,0,0,1,1.51.35l-.38.81a2.21,2.21,0,0,0-1.13-.29c-.51,0-.73.16-.73.36,0,.67,2.37,0,2.37,1.57,0,.73-.67,1.25-1.85,1.25A3.35,3.35,0,0,1,250.65,165.09Z" style="fill:#263238"></path><path d="M258.74,163.81h-3a1.05,1.05,0,0,0,1.13.79,1.35,1.35,0,0,0,1-.38l.61.66a2.08,2.08,0,0,1-1.62.63,2,2,0,0,1-2.25-2,2,2,0,0,1,2.1-2,2,2,0,0,1,2.05,2C258.76,163.59,258.74,163.71,258.74,163.81Zm-3-.67h1.93a1,1,0,0,0-1.93,0Z" style="fill:#263238"></path><path d="M262,161.46v1.06l-.26,0a1,1,0,0,0-1,1.1v1.85h-1.14v-3.93h1.09V162A1.57,1.57,0,0,1,262,161.46Z" style="fill:#263238"></path><path d="M266.66,163.2v2.25h-1.14v-2.07c0-.64-.29-.93-.8-.93s-.94.34-.94,1.06v1.94h-1.14v-3.93h1.09V162a1.74,1.74,0,0,1,1.3-.52A1.54,1.54,0,0,1,266.66,163.2Z" style="fill:#263238"></path><path d="M271.17,163.21v2.24H270.1V165a1.29,1.29,0,0,1-1.2.55c-.92,0-1.47-.51-1.47-1.19s.49-1.18,1.69-1.18H270c0-.48-.29-.77-.91-.77a1.89,1.89,0,0,0-1.13.37l-.41-.8a3,3,0,0,1,1.7-.48C270.47,161.46,271.17,162,271.17,163.21Zm-1.14,1v-.4h-.78c-.54,0-.7.2-.7.46s.24.48.64.48A.84.84,0,0,0,270,164.21Z" style="fill:#263238"></path><path d="M278.84,163.2v2.25H277.7v-2.07c0-.64-.28-.93-.74-.93s-.87.33-.87,1v2H275v-2.07c0-.64-.27-.93-.75-.93s-.86.33-.86,1v2H272.2v-3.93h1.09V162a1.58,1.58,0,0,1,1.23-.52,1.49,1.49,0,0,1,1.3.65,1.74,1.74,0,0,1,1.42-.65A1.52,1.52,0,0,1,278.84,163.2Z" style="fill:#263238"></path><path d="M283.74,163.81h-3a1,1,0,0,0,1.12.79,1.36,1.36,0,0,0,1-.38l.6.66a2.06,2.06,0,0,1-1.62.63,2,2,0,0,1-2.24-2,2,2,0,0,1,2.1-2,2,2,0,0,1,2,2C283.76,163.59,283.75,163.71,283.74,163.81Zm-3-.67h1.94a.94.94,0,0,0-1-.81A.92.92,0,0,0,280.75,163.14Z" style="fill:#263238"></path><path d="M291.28,163.45c0,1.31-.6,2.06-1.5,2.06a1,1,0,0,1-1-.64,1.39,1.39,0,0,1-1.25.64,1.86,1.86,0,0,1,0-3.7,1.38,1.38,0,0,1,1.12.49v-.43h1v2.36c0,.35.15.47.35.47s.54-.39.54-1.23a2.49,2.49,0,0,0-2.72-2.51,2.65,2.65,0,1,0,0,5.3,3.42,3.42,0,0,0,1.44-.32l.23.67a3.87,3.87,0,0,1-1.67.35,3.35,3.35,0,1,1,0-6.69A3.2,3.2,0,0,1,291.28,163.45Zm-2.61.21a.9.9,0,0,0-.92-1,1,1,0,0,0,0,2A.9.9,0,0,0,288.67,163.66Z" style="fill:#263238"></path><path d="M298.73,163.2v2.25h-1.14v-2.07c0-.64-.28-.93-.74-.93s-.87.33-.87,1v2h-1.14v-2.07c0-.64-.27-.93-.75-.93s-.86.33-.86,1v2h-1.14v-3.93h1.09V162a1.58,1.58,0,0,1,1.23-.52,1.49,1.49,0,0,1,1.3.65,1.73,1.73,0,0,1,1.41-.65A1.52,1.52,0,0,1,298.73,163.2Z" style="fill:#263238"></path><path d="M303.23,163.21v2.24h-1.06V165a1.29,1.29,0,0,1-1.2.55c-.92,0-1.47-.51-1.47-1.19s.49-1.18,1.69-1.18h.9c0-.48-.29-.77-.9-.77a1.84,1.84,0,0,0-1.13.37l-.41-.8a3,3,0,0,1,1.69-.48C302.54,161.46,303.23,162,303.23,163.21Zm-1.14,1v-.4h-.78c-.53,0-.7.2-.7.46s.24.48.64.48A.84.84,0,0,0,302.09,164.21Z" style="fill:#263238"></path><path d="M304.13,160.34a.65.65,0,0,1,.71-.64.64.64,0,1,1-.71.64Zm.14,1.18h1.13v3.93h-1.13Z" style="fill:#263238"></path><path d="M306.47,160h1.14v5.42h-1.14Z" style="fill:#263238"></path><path d="M308.39,164.8a.71.71,0,0,1,1.42,0,.71.71,0,1,1-1.42,0Z" style="fill:#263238"></path><path d="M310.24,163.49a2,2,0,0,1,2.19-2,1.79,1.79,0,0,1,1.76,1l-.88.47a1.05,1.05,0,1,0-.89,1.64,1,1,0,0,0,.89-.54l.88.48a1.81,1.81,0,0,1-1.76,1A2,2,0,0,1,310.24,163.49Z" style="fill:#263238"></path><path d="M314.51,163.49a2.16,2.16,0,1,1,2.16,2A2,2,0,0,1,314.51,163.49Zm3.16,0a1,1,0,1,0-1,1.09A1,1,0,0,0,317.67,163.49Z" style="fill:#263238"></path><path d="M326.23,163.2v2.25h-1.14v-2.07c0-.64-.29-.93-.75-.93s-.87.33-.87,1v2h-1.14v-2.07c0-.64-.27-.93-.74-.93s-.86.33-.86,1v2h-1.14v-3.93h1.08V162a1.6,1.6,0,0,1,1.24-.52,1.46,1.46,0,0,1,1.29.65,1.76,1.76,0,0,1,1.42-.65A1.52,1.52,0,0,1,326.23,163.2Z" style="fill:#263238"></path><path d="M260.57,190.59l1.85,1-.83,1.39-1.87-1.1,0,2.06h-1.6l0-2.08L256.31,193l-.82-1.39,1.86-1-1.86-1,.82-1.39,1.87,1.12,0-2.07h1.6l0,2.07,1.87-1.12.83,1.39Z" style="fill:#263238"></path><path d="M268.28,190.59l1.85,1L269.3,193l-1.87-1.1,0,2.06h-1.59l0-2.08L264,193l-.82-1.39,1.85-1-1.85-1,.82-1.39,1.87,1.12,0-2.07h1.59l0,2.07,1.87-1.12.83,1.39Z" style="fill:#263238"></path><path d="M276,190.59l1.85,1L277,193l-1.86-1.1,0,2.06h-1.6l0-2.08L271.72,193l-.81-1.39,1.85-1-1.85-1,.81-1.39,1.87,1.12,0-2.07h1.6l0,2.07,1.86-1.12.84,1.39Z" style="fill:#263238"></path><path d="M283.69,190.59l1.85,1-.83,1.39-1.87-1.1,0,2.06h-1.6l0-2.08L279.43,193l-.82-1.39,1.86-1-1.86-1,.82-1.39,1.87,1.12,0-2.07h1.6l0,2.07,1.87-1.12.83,1.39Z" style="fill:#263238"></path><path d="M291.4,190.59l1.85,1-.83,1.39-1.87-1.1,0,2.06H289l0-2.08L287.14,193l-.82-1.39,1.85-1-1.85-1,.82-1.39L289,189.3l0-2.07h1.59l0,2.07,1.87-1.12.83,1.39Z" style="fill:#263238"></path><path d="M299.11,190.59l1.85,1-.83,1.39-1.87-1.1,0,2.06h-1.6l0-2.08L294.84,193l-.81-1.39,1.85-1-1.85-1,.81-1.39,1.87,1.12,0-2.07h1.6l0,2.07,1.87-1.12.83,1.39Z" style="fill:#263238"></path><path d="M306.81,190.59l1.85,1-.83,1.39-1.87-1.1,0,2.06h-1.6l0-2.08L302.55,193l-.82-1.39,1.86-1-1.86-1,.82-1.39,1.87,1.12,0-2.07H306l0,2.07,1.87-1.12.83,1.39Z" style="fill:#263238"></path><path d="M314.52,190.59l1.85,1-.83,1.39-1.87-1.1,0,2.06h-1.59l0-2.08L310.26,193l-.82-1.39,1.85-1-1.85-1,.82-1.39,1.87,1.12,0-2.07h1.59l0,2.07,1.87-1.12.83,1.39Z" style="fill:#263238"></path></g><g id="freepik--Message--inject-73"><path d="M223.7,135.35H145.8a4.05,4.05,0,0,0-4.05,4.06v35.48a4,4,0,0,0,4.05,4.05h32.68l6.94,8.91,5.79-8.91H223.7a4.05,4.05,0,0,0,4.05-4.05V139.41A4.06,4.06,0,0,0,223.7,135.35Z" style="fill:#fff"></path><path d="M223.7,135.35h.38a4.22,4.22,0,0,1,1.11.25,4,4,0,0,1,1.54,1A4.06,4.06,0,0,1,227.8,139c.08,3.86.06,9.48.09,16.6,0,3.56,0,7.49,0,11.75,0,2.14,0,4.35,0,6.65a9.63,9.63,0,0,1-.08,1.76,4.3,4.3,0,0,1-.74,1.68,4.25,4.25,0,0,1-3.23,1.74l-32.68,0,.2-.1c-1.82,2.79-3.78,5.82-5.78,8.9l-.19.29-.22-.27-6.94-8.9.2.1H147c-.57,0-1.1,0-1.71,0a4.33,4.33,0,0,1-3.71-3.34,7.67,7.67,0,0,1-.11-1.7V159.51q0-6.39,0-12.53v-7.57a4.25,4.25,0,0,1,.29-1.54,4.34,4.34,0,0,1,2-2.28,4.24,4.24,0,0,1,1.47-.44,14.8,14.8,0,0,1,1.48,0h8.51l10.78,0,19.34,0,28,.08,7.61.05,2,0,.68,0-.68,0-2,0-7.61.05-28,.08-19.34,0H146.79c-.48,0-1,0-1.43,0a3.71,3.71,0,0,0-1.3.4,3.81,3.81,0,0,0-1.81,2,3.75,3.75,0,0,0-.26,1.37v1.5c0,2,0,4,0,6.07v12.53q0,6.38,0,13v1.66a6.88,6.88,0,0,0,.09,1.59,3.81,3.81,0,0,0,3.27,2.93c.51.05,1.1,0,1.65,0H178.6l.08.1,6.94,8.9-.41,0,5.79-8.9.07-.11h.14l32.66,0a3.77,3.77,0,0,0,2.93-1.56,3.73,3.73,0,0,0,.68-1.52,9.44,9.44,0,0,0,.08-1.69c0-2.3,0-4.51,0-6.65,0-4.26,0-8.19,0-11.75,0-7.1,0-12.72.05-16.59a4,4,0,0,0-1-2.25,4.05,4.05,0,0,0-1.49-1.05A5,5,0,0,0,223.7,135.35Z" style="fill:#263238"></path><path d="M170.16,145.37v1.31h-.85v-1.32L167.87,143h.91l1,1.64,1-1.64h.84Z" style="fill:#263238"></path><path d="M171.58,144.83a2,2,0,1,1,2,1.91A1.91,1.91,0,0,1,171.58,144.83Zm3.18,0A1.16,1.16,0,1,0,173.6,146,1.13,1.13,0,0,0,174.76,144.83Z" style="fill:#263238"></path><path d="M176.25,145.05V143h.86v2c0,.7.31,1,.82,1s.83-.29.83-1v-2h.85v2.07a1.68,1.68,0,1,1-3.36,0Z" style="fill:#263238"></path><path d="M182.82,146.68l-.71-1h-.79v1h-.86V143h1.6c1,0,1.61.51,1.61,1.34a1.2,1.2,0,0,1-.76,1.17l.83,1.19Zm-.8-3h-.7V145h.7c.52,0,.78-.25.78-.65S182.54,143.67,182,143.67Z" style="fill:#263238"></path><path d="M185.62,144.83a2,2,0,0,1,3.54-1.26l-.55.51a1.19,1.19,0,0,0-.94-.44,1.19,1.19,0,0,0,0,2.37,1.18,1.18,0,0,0,.94-.43l.55.5a2,2,0,0,1-3.54-1.25Z" style="fill:#263238"></path><path d="M189.43,144.83a2,2,0,1,1,2,1.91A1.91,1.91,0,0,1,189.43,144.83Zm3.18,0a1.16,1.16,0,1,0-1.16,1.18A1.13,1.13,0,0,0,192.61,144.83Z" style="fill:#263238"></path><path d="M194.13,143h1.69a1.86,1.86,0,1,1,0,3.7h-1.69Zm1.64,3a1.15,1.15,0,1,0,0-2.3H195V146Z" style="fill:#263238"></path><path d="M201.38,146v.69h-2.87V143h2.8v.68h-1.95v.81h1.72v.67h-1.72V146Z" style="fill:#263238"></path><rect x="149.86" y="150.57" width="69.79" height="20.34" rx="3.55" style="fill:#f5f5f5"></rect><path d="M164,162a3,3,0,0,1-3.28,3c-2.58,0-3.95-1.86-3.95-4.94,0-3.34,1.77-5.05,4.38-5.05a4.38,4.38,0,0,1,2.23.5l-.29.58a3.69,3.69,0,0,0-1.94-.45c-2.21,0-3.66,1.45-3.66,4.31a7.83,7.83,0,0,0,.08,1.18,3.09,3.09,0,0,1,3.14-2C162.72,159.06,164,160.21,164,162Zm-.72,0c0-1.41-1-2.32-2.67-2.32a2.48,2.48,0,0,0-2.73,2.35c0,1.15,1,2.31,2.82,2.31A2.33,2.33,0,0,0,163.32,162Z" style="fill:#B185A7"></path><path d="M177.11,162.16h-2.06v2.73h-.71v-2.73h-5.61v-.52l5.35-6.6h.8l-5.25,6.48h4.73v-2.4h.69v2.4h2.06Z" style="fill:#B185A7"></path><path d="M188.05,162.11c0,1.64-1.18,2.85-3.45,2.85a4.72,4.72,0,0,1-3.47-1.33l.36-.55a4.21,4.21,0,0,0,3.11,1.21c1.77,0,2.72-.84,2.72-2.18s-.9-2.18-2.87-2.18h-.62v-.52l2.91-3.73h-5.25V155h6.18v.5l-3,3.79C187,159.38,188.05,160.51,188.05,162.11Z" style="fill:#B185A7"></path><path d="M200,155v.5l-4.23,9.35h-.79l4.19-9.21h-5.53v1.89h-.7V155Z" style="fill:#B185A7"></path><path d="M205,160c0-3.08,1.59-5,3.85-5s3.86,1.91,3.86,5-1.59,5-3.86,5S205,163,205,160Zm7,0c0-2.74-1.28-4.33-3.14-4.33s-3.14,1.59-3.14,4.33,1.28,4.33,3.14,4.33S212,162.7,212,160Z" style="fill:#B185A7"></path></g><g id="freepik--Plant--inject-73"><path d="M419.4,417.52c13.09-5.56,28.25-16.49,35-29.9a74.62,74.62,0,0,0-35,29.9" style="fill:#263238"></path><path d="M422.19,396.71c13.09-5.55,28.25-16.48,35-29.89a74.51,74.51,0,0,0-35,29.89" style="fill:#263238"></path><path d="M426,376.48c13.1-5.56,28.25-16.49,35-29.89a74.54,74.54,0,0,0-35,29.89" style="fill:#263238"></path><path d="M430.72,355.3C443.07,348,456.84,335,462,320.82a77,77,0,0,0-31.25,34.48" style="fill:#263238"></path><path d="M435.8,339.09c9-11.77,17.39-29.29,17.28-44.47a82.7,82.7,0,0,0-17.28,44.47" style="fill:#263238"></path><path d="M433.28,346.8c-1.82-15.92-8-35.93-18.52-47.87a97.27,97.27,0,0,0,18.52,47.87" style="fill:#263238"></path><path d="M429.05,364.21c-3.2-16.41-11.3-36.71-23.24-48.22a101,101,0,0,0,23.24,48.22" style="fill:#263238"></path><path d="M424.19,385.44C421,369,412.88,348.73,401,337.22a101,101,0,0,0,23.24,48.22" style="fill:#263238"></path><path d="M420.29,411.51c-3.21-16.41-11.31-36.71-23.24-48.22a101,101,0,0,0,23.24,48.22" style="fill:#263238"></path><path d="M436.41,336a.72.72,0,0,0-.1.25c-.07.19-.15.43-.25.73-.22.69-.53,1.64-.91,2.84-.79,2.47-1.85,6.06-3.1,10.52s-2.63,9.79-4.05,15.74-2.82,12.54-4.14,19.48-2.35,13.6-3.22,19.66-1.49,11.54-1.94,16.14-.77,8.34-.93,10.93c-.08,1.26-.14,2.25-.19,3,0,.32,0,.57,0,.78a.86.86,0,0,0,0,.26.82.82,0,0,0,.05-.26c0-.2,0-.46.08-.77.07-.72.17-1.71.29-3,.22-2.57.59-6.3,1.09-10.9s1.19-10.06,2.05-16.11,2-12.69,3.26-19.63,2.72-13.51,4.09-19.47,2.73-11.29,3.94-15.76,2.21-8.07,2.94-10.55l.82-2.87c.08-.3.14-.55.2-.75A1,1,0,0,0,436.41,336Z" style="fill:#263238"></path><path d="M413,426.18c5.55-11.62,9.59-28,6.87-40.73A72.23,72.23,0,0,0,413,426.18" style="fill:#455a64"></path><path d="M403.79,411.13c5.55-11.63,9.59-28,6.86-40.73a72.13,72.13,0,0,0-6.86,40.73" style="fill:#455a64"></path><path d="M395.51,395.82c5.55-11.63,9.59-28,6.86-40.73a72.13,72.13,0,0,0-6.86,40.73" style="fill:#455a64"></path><path d="M387.35,379.31c4.13-12.3,6.2-29.08,2-41.35a72.71,72.71,0,0,0-2,41.35" style="fill:#455a64"></path><path d="M382,365.79c-.41-13.09-4.26-29.49-12.39-39.16A71,71,0,0,0,382,365.79" style="fill:#455a64"></path><path d="M384.49,372.28c-9.63-9.08-24.27-18.11-37.43-19.29a72.49,72.49,0,0,0,37.43,19.29" style="fill:#455a64"></path><path d="M391,386.06c-10.79-8.56-26.83-16.58-40.69-16.61A75.58,75.58,0,0,0,391,386.06" style="fill:#455a64"></path><path d="M399.1,402.67c-10.79-8.55-26.82-16.58-40.68-16.61a75.58,75.58,0,0,0,40.68,16.61" style="fill:#455a64"></path><path d="M410.41,421.79c-10.79-8.56-26.83-16.58-40.69-16.62a75.52,75.52,0,0,0,40.69,16.62" style="fill:#455a64"></path><path d="M380.78,363.42s0,.07.06.21l.22.62.9,2.35c.79,2,2,5,3.53,8.58,3.08,7.19,7.65,17,13.32,27.54,2.84,5.25,5.69,10.19,8.35,14.62s5.19,8.37,7.36,11.63,4,5.87,5.24,7.65l1.48,2,.39.52c.09.12.14.18.15.17a1.75,1.75,0,0,0-.11-.2l-.35-.55c-.35-.51-.81-1.21-1.4-2.09-1.24-1.81-3-4.45-5.11-7.73s-4.6-7.24-7.26-11.67-5.47-9.38-8.31-14.63C393.57,392,389,382.2,385.81,375c-1.58-3.58-2.83-6.49-3.67-8.51l-1-2.32-.27-.6A.92.92,0,0,0,380.78,363.42Z" style="fill:#263238"></path><polygon points="386.58 427.59 441.74 427.59 441.74 438.22 436.07 438.22 431.3 468.54 397.2 468.54 392.29 438.22 386.58 438.22 386.58 427.59" style="fill:#B185A7"></polygon><path d="M386.58,438c0-.14,12.26-.26,27.38-.26s27.38.12,27.38.26-12.25.25-27.38.25S386.58,438.14,386.58,438Z" style="fill:#263238"></path></g></svg>