<svg xmlns="http://www.w3.org/2000/svg" width="240" height="240" fill="none" viewBox="0 0 240 240">
  <path fill="#B185A7" d="M37.74 76.392c1.872 4.465 16.368 1.2 12.216-4.38-3.623-4.811-13.716.817-12.216 4.38Zm33.156-43.667c-5.376 4.476 5.4 12.408 7.884 5.316 2.4 7.836 14.196 2.616 10.332-3.912 4.32 2.124 6.072-5.028 4.032-7.464a3.924 3.924 0 0 0-2.592-1.32c7.668-5.472-4.8-13.992-8.232-5.64 0-10.632-15.528-4.032-9.972 4.116-6.06-2.064-7.92 8.916-1.452 8.904Zm-.924-5.268c.708-2.508 3.696.216 5.244-1.344 1.848-1.86-3.96-7.02 1.2-8.772 5.16-1.752 1.308 5.688 4.584 6.708 3.672 1.128 3.852-7.572 7.956-4.308 3.84 3.048-4.032 3.9-2.784 6.912 1.248 3.012 6.228-.444 4.8 3.996-.864 2.604-4.8-2.256-6.132.264-1.332 2.52 4.008 5.28 1.2 7.368-2.544 1.908-4.056 0-5.076-2.268-3.432-7.8-4.8 8.124-8.724-.396-.66-1.392 3.6-1.992 2.988-4.152-.828-3.096-6.492.312-5.256-4.008Z"/>
  <path fill="#B185A7" d="M32.4 69.156a27.732 27.732 0 0 1-.12 13.908c-11.808-15.708-19.896 3.108-1.428 4.2-4.98 7.62-3.6 7.404-3.096 7.932 1.752 1.656 12-12.18 7.38-26.964 9.348-3.048 10.308-20.916-.6-23.82-8.784-2.34-19.704 6.768-16.164 16.104 2.58 7.464 8.172 9.888 14.028 8.64Zm-11.088-9c3.696-6 7.716 0 10.26 6.264-3.6.78-8.124-.54-10.248-6.264h-.012ZM39.528 54a10.116 10.116 0 0 1-5.232 11.436C30.6 60.3 33.276 51.108 39.528 54Zm-1.32-3.468c-4.008-.18-7.524 2.592-8.4 7.08-2.868-2.76-5.448-4.188-9.084-1.332C21.12 48 33.84 43.2 38.208 50.544v-.012Zm3.445 145.284c-4.104-2.952-9.852.804-8.796 6.132a22.277 22.277 0 0 0-4.884-6.96c-1.392-1.2-3.3.984-1.884 2.184A19.782 19.782 0 0 1 30 202.8a5.578 5.578 0 0 0-4.314 3.049 5.57 5.57 0 0 0 .174 5.279 34.69 34.69 0 0 1-6.66-7.548 1.437 1.437 0 0 0-1.815-.814 1.439 1.439 0 0 0-.897 1.774 34.916 34.916 0 0 0 9.696 10.332c-6.9 3.216-2.064 11.856 5.316 10.86 6.144-.096 10.188-2.772 16.176-4.296a1.428 1.428 0 0 0 .972-1.62c-2.76-6.84-1.536-20.088-6.996-24Zm-2.508 25.2c-17.58 6.936-19.032-10.188 1.2-.432l-1.2.432Zm-11.052-12.624c.864-9.204 11.304 7.2 15 9.816-9.72-1.62-15.3-6.54-15-9.84v.024Zm11.844 1.932c-10.8-12.156 2.712-23.556 4.632 5.232-1.668-1.776-3.18-3.612-4.632-5.256v.024ZM142.356 57.9c-14.1-16.043-26.916-12.911-34.8-7.583a10.966 10.966 0 0 1-7.2 1.92C96.36 52.08 78.3 49.273 68.4 75.6c0 0-8.28 26.676-11.64 31.704-3.36 5.028-8.4 12.732-15.24 13.5-4.596.528-6.912-2.616-10.8-1.704-7.968 1.836-8.4 21.024.492 38.28 9.468 18.468 24.576 25.2 38.4 27.336-7.74-27.036-3.972-48.3 22.176-51.36 8.544-16.476-.612-27.792-4.428-37.2-6.216-15.072 3.96-28.044 16.74-33.036 23.16-9.036 42.672 9.348 46.32 35.46 0 0 6.048-24.636-8.064-40.68Z"/>
  <path fill="#001434" d="M197.436 182.004c-12.66.804-19.116-6.708-21.012-4.26-1.08 1.404.372 1.92 2.064 2.808-1.596 8.268-3.084 16.044-4.596 19.644-2.016-2.316-6.768-2.544-8.088.672-2.04 5.028 5.28 7.752 8.784 4.584 3.084-2.784 3.852-8.58 5.7-18.828 4.032 1.428 12.816 3.36 14.892 3.816a53.85 53.85 0 0 1-3.816 15.408c-2.136-1.848-4.056-1.74-5.292-.792-2.544 1.944-.48 7.692 4.092 7.008 2.4-.36 4.392-.972 6.384-10.716 1.728-8.424 3.708-19.164.888-19.344Zm-16.572 1.476c.108-.564.216-1.128.324-1.716a40.6 40.6 0 0 0 14.568 3.144c-.072.78-.144 1.524-.216 2.256-5.004.036-11.832-2.532-14.676-3.684ZM164.4 66.757c6.156-2.029 3.3-10.369-.78-22.657a6.315 6.315 0 0 0 6.456 1.657c5.844-1.356 2.988-11.785-.456-8.892-4.512 6.456-9.6.347-9.84 4.98 1.764 5.04 4.32 12.072 4.992 15.36-10.752-4.968-10.536 12.876-.372 9.552ZM107.556 103.2c6 2.016 15.276-1.896 19.848-6.288 1.128-1.08 0-3.924-2.1-2.4-3.504 2.568-9.516 6.456-17.508 5.784a1.456 1.456 0 0 0-.24 2.904Zm-62.831 30.48c-6.084 4.488-9.324-2.784-10.8 1.644.312 5.064.84 12.192.6 15.36-8.292-7.14-13.536 9.072-3.036 8.556 6.804-.336 6.228-8.64 5.52-20.736 4.044 6.828 13.2 2.532 9.708-4.524a1.453 1.453 0 0 0-1.992-.3Zm78.107-57.323a18.097 18.097 0 0 1 10.656-1.956c1.848.18 1.92-2.064.144-2.676-2.664-.9-9.78 0-12.168 2.316-1.02.984.108 3.024 1.368 2.316Zm-22.596.336c1.608-.852 0-3.744-1.884-3-6 2.484-16.908 14.736-12.744 15.936a1.512 1.512 0 0 0 1.896-.744c1.548-3.54 7.464-9.396 12.732-12.192Z"/>
  <path fill="#001434" d="M225.913 52.56c-2.964-.444-7.332.528-12 2.28-.912-5.232 3.96-6.456 5.868-10.896a11.719 11.719 0 0 0-.072-9.288 1.443 1.443 0 0 0-1.89-.762 1.441 1.441 0 0 0-.762 1.89c4.02 9.672-8.664 12-5.844 20.124a90.084 90.084 0 0 0-5.508 2.532 4.8 4.8 0 0 0-5.736-2.04c-2.4.624-1.98 3.504-.264 3.036 1.932-.528 2.4-.372 3.336.384a74.555 74.555 0 0 0-11.448 7.488c-.996-1.008-.78-1.908-.348-3.384 1.752-5.928-3.24-5.46-6.48-8.268-1.524-1.332 5.928-9.816 3.6-11.076a1.43 1.43 0 0 0-2.004.372c-8.316 12.804-4.644 12.42 2.268 16.008.396 2.244-2.112 5.88.78 8.28-6.588 9.996 5.376 7.56-10.116 22.32-5.304-5.508-14.34-.84-12.756 6.216a30.827 30.827 0 0 0-12.708-2.208c6.66-29.568-23.16-65.88-50.628-50.376-1.644.924-2.82 2.28-4.932 2.808a16.8 16.8 0 0 1-5.46.072c-10.416-.372-20.28 2.268-29.52 13.848-12.972 17.112-11.472 37.2-25.128 54.156-12.48 15.528-18.072 4.536-24.792 6.516-1.92.564-6.732 2.616-7.2 12.276A60.24 60.24 0 0 0 27.06 183.3a58.244 58.244 0 0 0 30.18 14.184c3.6 19.38 21.852 23.76 40.104 18.24 13.956 9.768 31.62 4.656 40.644-9.6 4.512-6.828 3.6-16.344 7.08-23.352 3.852-7.56 13.536-11.904 18.888-14.016 10.152-4.02 9.684-11.088 3.432-14.94-3.684-1.5-9.54-2.34-11.268-5.916 3.888-3.924 7.272-7.38 9.6-10.08 5.28 9.72 11.376 20.868 17.592 25.752 10.38 8.172 28.872 2.484 30.156-11.58 1.08-11.712-4.176-21.372-9.516-31.968-4.8-9.6-.504-15.228-6.3-19.992 7.86-13.068 18.48-3.72 18.72-18.708.132-7.608.528-8.94 6.66-9.264 12.072-.648 15.768-17.28 2.88-19.5Zm-18.972 8.472a87.94 87.94 0 0 1 5.556-2.58 17.56 17.56 0 0 0 3.972 3.864c-3.804 6.72-23.784 29.484-29.664 37.572-.372-.54-.78-1.128-1.2-1.74 6.444-6.144 13.44-22.476 21.468-27.84 2.436-1.656.108-7.536-.132-9.276Zm-15.768 10.56.552-.564a24.206 24.206 0 0 0 3.324 1.692c-1.5 1.656-2.88 3.12-4.476 5.004-.312-2.268-.768-4.704.6-6.132Zm-8.16 20.244c5.1-5.388 10.488-13.2 15.6-18.816 2.064-2.28-3-2.676-4.596-3.996a75.46 75.46 0 0 1 10.344-6.624c.541 1.782.919 3.61 1.128 5.46-6.996 5.112-15.192 21.348-21.696 28.032-.708-.828-1.476-1.668-2.268-2.4l1.488-1.656Zm-15.54 9.48c.3.876.624 1.764.984 2.664-7.5 5.484-14.052 15.12-20.076 21.156-3.6-.672-5.208-1.956-4.608-5.256 6.552-6 6.912-13.788 9.42-21.36a27.819 27.819 0 0 1 14.28 2.796Zm-83.928 2.976C73.38 87.984 79.885 74.544 91.333 66.9c9.6-6.408 22.512-9 33.264-3.42-5.244-.708-17.34 3.324-15.6 6.648a1.968 1.968 0 0 0 2.4.696 23.278 23.278 0 0 1 16.536-4.212c13.02 3.732 26.556 32.148 17.328 46.62.192-2.664-.924-4.668-4.296-4.8-8.136-.072-16.584 11.472-17.532 19.524-7.044 3.6-24 7.344-36 4.452 4.776-11.448 1.236-19.884-3.888-28.116Zm39.252 27.228c-.324 14.7-12 9.132-21.876 12.3a17.09 17.09 0 0 0-4.656-7.488c9.12-.24 19.632-1.824 26.532-4.812Zm-11.916 13.824c9.156-.12 14.28-3.336 14.604-12.504.192-5.7 4.8-16.56 10.932-20.148 1.848-1.092 4.8-1.788 5.868-.936 1.068.852-.588 4.296-.996 6.6-.708 4.032-.732 7.92 4.896 9.216-6.432 7.2-11.22 12.348-19.944 21.6-3.432.084-7.632 2.976-12 6.648-2.784-6.564-7.764-7.848-12-4.644a31.93 31.93 0 0 0-.564-4.548 26.746 26.746 0 0 1 9.204-1.284Zm48.72-28.428a19.332 19.332 0 0 0-.072 3.6c-11.52 11.124-15.792 18.744-27.396 30.372a8.503 8.503 0 0 0-2.4-1.296c9.204-9.696 14.436-15.36 29.868-32.676Zm.444 7.2a33.57 33.57 0 0 0 .948 3.456c-7.032 8.304-17.496 21-25.356 29.076a6.34 6.34 0 0 0-1.428-3.672c11.736-11.916 16.08-19.26 25.836-28.908v.048Zm-145.848 37.5c-8.124-18-7.2-34.344 0-36.564 5.388-1.644 12.996 9.3 26.148-7.2 13.788-16.98 12.516-37.404 25.2-54.204C78.817 46.8 93.289 52.128 98.677 50.712c2.532-.672 4.704-2.664 7.092-3.756 25.44-11.52 50.148 20.268 45.336 47.772-4.356-17.568-13.812-29.856-29.292-35.676-15.48-5.82-42.276 6.288-45.972 23.628-4.152 19.416 17.76 29.82 8.568 49.548-29.928.684-34.8 36.36-28.116 62.304-12.168-1.26-33.492-13.74-42.096-32.916Zm71.076-26.496c17.064.468 14.664 23.148 11.232 33.672-15.396 2.928-31.128 14.676-36.852 27.024-7.788-25.8-1.92-61.416 25.62-60.696Zm.864 79.68C76.8 216 63.6 212.4 61.093 200.1c8.976-22.536 33.42-27.6 37.872-28.956 3.396-1.032 2.688-17.82 7.284-18.72 4.596-.9 5.388 9.768 10.452 5.208 7.776-9.6 22.08-5.28 12.996 6.132a45.093 45.093 0 0 1-6 5.124 1.46 1.46 0 0 0-.515.719 1.458 1.458 0 0 0 .508 1.606c.242.181.533.283.835.291 1.452-.276 2.592-1.608 5.736-4.188a34.096 34.096 0 0 1 2.148 9.828c-2.256 1.752-5.436 3.708-5.472 3.732a1.44 1.44 0 0 0 .756 2.664c1.2-.216 1.932-1.032 4.62-2.748-1.056 19.116-25.716 31.272-46.176 34.008Zm77.268-59.292c7.056 1.116 6.876 8.316-.528 10.524-7.08 2.616-16.38 7.404-20.4 15.42-3.6 7.044-2.688 16.404-6.936 23.088-7.74 12.084-21.996 17.268-34.524 10.08 21.744-6.768 39.168-23.304 33.228-44.16 6.588-7.2 13.464-14.136 19.752-20.46 2.004 3.18 6.204 4.512 9.408 5.508Zm-30.204 11.736a59.863 59.863 0 0 0-.792-2.268c7.044-9.084 21.276-23.436 29.736-34.368a60.267 60.267 0 0 0 2.076 4.464c-5.676 6.696-19.02 19.092-31.02 32.172Zm65.364-56.616c.192 11.82 14.4 26.4 12 41.04-2.304 13.86-19.044 15.456-25.944 8.856-6.444-6.156-11.136-14.4-16.272-23.82-6.132-10.8-10.104-22.896 1.2-30 1.476 2.64 1.896 3.432 2.772 3.672.876.24 1.836-1.284 1.2-2.208a33.66 33.66 0 0 1-1.92-4.104c-2.928-7.2-3.48-12.588 2.4-12.084 3.6.3 8.016 6.852 10.956 10.464 2.94 3.612 13.356-7.236 13.62 8.184h-.012Zm32.496-48.408c-2.748 13.86-18.36-1.08-17.604 18.864-.24 11.688-10.284 3.828-18.6 17.856a11.88 11.88 0 0 0-3.744 0c7.008-8.868 27.972-33.384 28.536-36.636.264-2.58-1.956-1.692-4.38-4.956 6.888-3.108 16.44-3.06 15.804 4.872h-.012Z"/>
  <path fill="#001434" d="M112.801 82.188c6.84-.552 12.444 1.608 6.54 7.836-1.944 2.052.18 3.516 1.812 2.232 4.152-3.24 4.044-6.804 3.06-9.168-1.68-3.888-8.724-4.44-12.612-3.444-2.484.648-2.184 2.82 1.2 2.544ZM90.937 93.865c-.456 1.2 2.148 3.012 3.156.96 1.944-3.948 5.184-7.776 9.42-8.712.78-.18 1.452-1.008 1.104-1.716-1.872-3.756-11.016 2.796-13.68 9.468Z"/>
</svg>
