<svg xmlns="http://www.w3.org/2000/svg" width="126" height="70" fill="none" viewBox="0 0 126 70">
  <path fill="#712375" d="M4.8 58.192c-.907 0-1.685-.24-2.336-.72-.65-.48-1.152-1.152-1.504-2.016-.341-.875-.512-1.893-.512-3.056s.17-2.176.512-3.04c.352-.875.853-1.552 1.504-2.032.65-.48 1.43-.72 2.336-.72.907 0 1.685.24 2.336.72.65.48 1.147 1.157 1.488 2.032.352.864.528 1.877.528 3.04s-.176 2.181-.528 3.056c-.341.864-.837 1.536-1.488 2.016-.65.48-1.43.72-2.336.72Zm0-1.264c.885 0 1.6-.395 2.144-1.184.555-.79.832-1.904.832-3.344s-.277-2.555-.832-3.344c-.544-.79-1.259-1.184-2.144-1.184-.896 0-1.616.395-2.16 1.184-.544.79-.816 1.904-.816 3.344s.272 2.555.816 3.344c.544.79 1.264 1.184 2.16 1.184Zm9.578 1.264c-.747 0-1.414-.155-2-.464-.576-.31-1.035-.779-1.376-1.408-.33-.64-.496-1.44-.496-2.4V46.8h1.344v7.168c0 .96.234 1.701.704 2.224.47.523 1.088.784 1.856.784s1.381-.261 1.84-.784c.458-.523.688-1.264.688-2.224V46.8h1.344v7.12c0 .96-.17 1.76-.512 2.4-.342.63-.806 1.099-1.392 1.408-.587.31-1.254.464-2 .464ZM23.316 58v-9.984h-3.008V46.8h7.36v1.216H24.66V58h-1.345Zm10.377.192c-.79 0-1.477-.15-2.064-.448a3.304 3.304 0 0 1-1.344-1.248c-.31-.533-.47-1.157-.48-1.872h1.408c.01.64.224 1.195.64 1.664.427.459 1.04.688 1.84.688.736 0 1.302-.176 1.696-.528.406-.363.608-.795.608-1.296 0-.416-.096-.763-.288-1.04-.192-.288-.506-.539-.944-.752-.426-.224-1.002-.453-1.728-.688-1.024-.31-1.77-.73-2.24-1.264-.47-.533-.704-1.195-.704-1.984 0-.533.139-1.013.416-1.44.278-.427.678-.763 1.2-1.008.523-.245 1.158-.368 1.904-.368.704 0 1.318.133 1.84.4.534.256.944.619 1.232 1.088.299.47.448 1.008.448 1.616h-1.408c0-.299-.08-.592-.24-.88-.16-.288-.4-.528-.72-.72-.32-.192-.725-.288-1.216-.288-.586 0-1.077.144-1.472.432-.394.277-.592.661-.592 1.152 0 .373.086.688.256.944.182.256.475.49.88.704.406.203.955.421 1.648.656.65.213 1.206.464 1.664.752.47.277.827.624 1.072 1.04.256.416.384.933.384 1.552 0 .608-.154 1.147-.464 1.616-.31.47-.741.843-1.296 1.12-.554.267-1.2.4-1.936.4ZM39.96 58v-1.168h2.544v-8.864H39.96V46.8h6.432v1.168h-2.544v8.864h2.544V58H39.96Zm9.066 0V46.8h2.352c1.834 0 3.19.501 4.064 1.504.885 1.003 1.328 2.368 1.328 4.096 0 1.728-.443 3.093-1.328 4.096C54.566 57.499 53.21 58 51.377 58h-2.352Zm1.344-1.232h.976c.981 0 1.765-.181 2.352-.544a3.116 3.116 0 0 0 1.296-1.52c.266-.65.4-1.419.4-2.304 0-.885-.134-1.653-.4-2.304a3.116 3.116 0 0 0-1.296-1.52c-.587-.363-1.37-.544-2.352-.544h-.976v8.736ZM58.939 58V46.8h6.991v1.216h-5.648v3.728h5.169v1.216h-5.168v3.824h5.647V58h-6.992Zm9.53 0V46.8h3.44c.863 0 1.573.144 2.127.432.566.288.987.683 1.264 1.184.278.49.416 1.05.416 1.68 0 .736-.192 1.387-.576 1.952-.373.555-.95.944-1.728 1.168L75.844 58h-1.6l-2.256-4.592h-2.176V58h-1.344Zm1.343-5.824h2.048c.854 0 1.478-.192 1.872-.576.406-.395.608-.896.608-1.504 0-.64-.197-1.147-.592-1.52-.384-.373-1.018-.56-1.904-.56h-2.032v4.16ZM80.75 58l-3.568-11.2h1.44l2.928 9.456 2.928-9.456h1.456L82.35 58h-1.6Zm7.178 0v-1.168h2.544v-8.864h-2.544V46.8h6.432v1.168h-2.544v8.864h2.544V58h-6.432Zm9.066 0V46.8h3.728c1.162 0 2.037.267 2.624.8.586.533.88 1.216.88 2.048 0 .65-.176 1.19-.528 1.616-.352.416-.747.71-1.184.88v.112a3.1 3.1 0 0 1 1.376.928c.394.448.592 1.024.592 1.728 0 .576-.144 1.099-.432 1.568-.278.459-.688.827-1.232 1.104-.534.277-1.19.416-1.968.416h-3.856Zm1.344-6.368h2.288c.714 0 1.258-.155 1.632-.464.384-.32.576-.779.576-1.376 0-.565-.187-1.003-.56-1.312-.374-.31-.939-.464-1.696-.464h-2.24v3.616Zm0 5.136h2.368c.768 0 1.36-.17 1.776-.512.416-.352.624-.843.624-1.472 0-.63-.219-1.115-.656-1.456-.438-.352-1.03-.528-1.776-.528h-2.337v3.968ZM106.907 58V46.8h6.992v1.216h-5.648v3.728h5.168v1.216h-5.168v3.824h5.648V58h-6.992Zm13.13.192c-.789 0-1.477-.15-2.064-.448a3.304 3.304 0 0 1-1.344-1.248c-.309-.533-.469-1.157-.48-1.872h1.408c.011.64.224 1.195.64 1.664.427.459 1.04.688 1.84.688.736 0 1.301-.176 1.696-.528.405-.363.608-.795.608-1.296 0-.416-.096-.763-.288-1.04-.192-.288-.507-.539-.944-.752-.427-.224-1.003-.453-1.728-.688-1.024-.31-1.771-.73-2.24-1.264-.469-.533-.704-1.195-.704-1.984 0-.533.139-1.013.416-1.44.277-.427.677-.763 1.2-1.008.523-.245 1.157-.368 1.904-.368.704 0 1.317.133 1.84.4.533.256.944.619 1.232 1.088.299.47.448 1.008.448 1.616h-1.408c0-.299-.08-.592-.24-.88-.16-.288-.4-.528-.72-.72-.32-.192-.725-.288-1.216-.288-.587 0-1.077.144-1.472.432-.395.277-.592.661-.592 1.152 0 .373.085.688.256.944.181.256.475.49.88.704.405.203.955.421 1.648.656a7.555 7.555 0 0 1 1.664.752c.469.277.827.624 1.072 1.04.256.416.384.933.384 1.552 0 .608-.155 1.147-.464 1.616-.309.47-.741.843-1.296 1.12-.555.267-1.2.4-1.936.4Z"/>
  <path fill="#B185A7" d="m3.928 68-.904-5.6h.584l.64 4.472.856-4.472h.592l.856 4.472.64-4.472h.584L6.872 68H6.24l-.84-4.528L4.56 68h-.632Zm4.589 0v-5.76h.56v2.392c.107-.203.285-.368.536-.496.25-.133.523-.2.816-.2.485 0 .853.147 1.104.44.25.293.376.693.376 1.2V68h-.56v-2.36c0-.368-.09-.656-.272-.864-.181-.208-.438-.312-.768-.312a1.3 1.3 0 0 0-.616.152c-.187.101-.336.25-.448.448-.112.192-.168.432-.168.72V68h-.56Zm6.517.096a1.85 1.85 0 0 1-.976-.256 1.885 1.885 0 0 1-.672-.728 2.407 2.407 0 0 1-.24-1.104c0-.421.08-.787.24-1.096.16-.31.381-.55.664-.72a1.93 1.93 0 0 1 1-.256c.384 0 .71.088.976.264.266.17.47.395.608.672s.208.576.208.896v.168c0 .059-.003.125-.008.2H13.69c.016.325.088.595.216.808.133.208.298.365.496.472.202.101.413.152.632.152.325 0 .576-.067.752-.2a1.21 1.21 0 0 0 .4-.56h.544c-.086.357-.27.661-.552.912-.278.25-.659.376-1.144.376Zm-.008-3.648c-.336 0-.632.104-.888.312-.25.208-.398.496-.44.864h2.6c-.022-.373-.15-.661-.384-.864-.23-.208-.526-.312-.888-.312ZM18.095 68v-.48h1.056v-2.848a.153.153 0 0 0-.048-.112.153.153 0 0 0-.112-.048h-.776v-.48h.976c.154 0 .274.04.36.12.085.08.128.197.128.352v.224h.032c.058-.25.173-.445.344-.584.176-.139.402-.208.68-.208h.8v.592h-.8c-.326 0-.579.107-.76.32-.176.213-.264.499-.264.856v1.816h1.256V68h-2.872Zm6.533.096a1.85 1.85 0 0 1-.977-.256 1.885 1.885 0 0 1-.671-.728 2.407 2.407 0 0 1-.24-1.104c0-.421.08-.787.24-1.096.16-.31.38-.55.663-.72.288-.17.622-.256 1-.256.384 0 .71.088.976.264.267.17.47.395.608.672.14.277.209.576.209.896v.168c0 .059-.003.125-.009.2h-3.143c.015.325.088.595.216.808.133.208.298.365.495.472.203.101.414.152.633.152.325 0 .575-.067.752-.2.18-.139.314-.325.4-.56h.543a1.731 1.731 0 0 1-.552.912c-.277.25-.658.376-1.143.376Zm-.009-3.648c-.335 0-.631.104-.887.312-.251.208-.398.496-.44.864h2.6c-.022-.373-.15-.661-.384-.864-.23-.208-.526-.312-.889-.312Zm9.562 3.648c-.448 0-.834-.12-1.16-.36-.32-.245-.568-.584-.744-1.016-.17-.437-.256-.944-.256-1.52 0-.57.086-1.072.256-1.504.176-.437.424-.779.744-1.024a1.872 1.872 0 0 1 1.16-.368c.454 0 .84.123 1.16.368.32.245.566.587.736 1.024.176.432.264.933.264 1.504 0 .576-.088 1.083-.264 1.52-.17.432-.416.77-.736 1.016-.32.24-.706.36-1.16.36Zm0-.528c.475 0 .856-.205 1.144-.616.294-.416.44-1 .44-1.752s-.146-1.333-.44-1.744c-.288-.416-.67-.624-1.144-.624-.47 0-.85.208-1.144.624-.293.41-.44.992-.44 1.744s.147 1.336.44 1.752c.294.41.675.616 1.144.616Zm4.71.528a1.74 1.74 0 0 1-.913-.24 1.684 1.684 0 0 1-.616-.712c-.15-.315-.224-.693-.224-1.136 0-.443.075-.819.224-1.128.15-.31.355-.544.616-.704.267-.16.57-.24.912-.24.325 0 .592.064.8.192.208.128.363.299.464.512v-2.4h.56V68h-.432l-.08-.632h-.048a1.194 1.194 0 0 1-.48.536c-.213.128-.474.192-.784.192Zm.04-.528c.357 0 .65-.128.88-.384.228-.256.343-.645.343-1.168 0-.523-.115-.912-.344-1.168a1.128 1.128 0 0 0-.88-.384c-.357 0-.65.128-.88.384-.23.256-.344.645-.344 1.168 0 .523.115.912.344 1.168.23.256.523.384.88.384Zm4.756.528a1.74 1.74 0 0 1-.912-.24 1.684 1.684 0 0 1-.616-.712c-.15-.315-.224-.693-.224-1.136 0-.443.075-.819.224-1.128.15-.31.355-.544.616-.704.267-.16.57-.24.912-.24.325 0 .592.064.8.192.208.128.363.299.464.512v-2.4h.56V68h-.432l-.08-.632h-.048a1.194 1.194 0 0 1-.48.536c-.213.128-.475.192-.784.192Zm.04-.528c.357 0 .65-.128.88-.384.23-.256.344-.645.344-1.168 0-.523-.115-.912-.344-1.168a1.129 1.129 0 0 0-.88-.384c-.357 0-.65.128-.88.384-.23.256-.344.645-.344 1.168 0 .523.115.912.344 1.168.23.256.523.384.88.384Zm4.813-4.304a.496.496 0 0 1-.352-.144.496.496 0 0 1-.144-.352c0-.139.048-.256.144-.352a.496.496 0 0 1 .352-.144c.139 0 .256.048.352.144a.479.479 0 0 1 .144.352c0 .133-.048.25-.144.352a.479.479 0 0 1-.352.144ZM47.012 68v-.48h1.28v-2.848c0-.107-.053-.16-.16-.16h-.96v-.48h1.12c.373 0 .56.187.56.56v2.928h1.28V68h-3.12Zm6.765 0c-.347 0-.619-.083-.816-.248-.192-.17-.288-.475-.288-.912v-2.328h-1.008v-.48h.6c.277 0 .434-.133.472-.4l.096-.6h.4v1h1.6v.48h-1.6v2.328c0 .24.053.408.16.504.112.096.304.144.576.144h.864V68h-1.056Zm3.205 1.76 1-2.184h-.224l-1.592-3.544h.608l1.376 3.184 1.464-3.184h.576l-2.624 5.728h-.584Zm10.777-1.664c-.448 0-.834-.12-1.16-.36-.32-.245-.568-.584-.744-1.016-.17-.437-.256-.944-.256-1.52 0-.57.086-1.072.256-1.504.176-.437.424-.779.744-1.024a1.872 1.872 0 0 1 1.16-.368c.454 0 .84.123 1.16.368.32.245.566.587.736 1.024.176.432.264.933.264 1.504 0 .576-.088 1.083-.264 1.52-.17.432-.416.77-.736 1.016-.32.24-.706.36-1.16.36Zm0-.528c.475 0 .856-.205 1.144-.616.294-.416.44-1 .44-1.752s-.146-1.333-.44-1.744c-.288-.416-.669-.624-1.144-.624-.469 0-.85.208-1.144.624-.293.41-.44.992-.44 1.744s.147 1.336.44 1.752c.294.41.675.616 1.144.616ZM70.86 68v-.48h1.056v-2.848a.153.153 0 0 0-.048-.112.154.154 0 0 0-.112-.048h-.776v-.48h.976c.155 0 .275.04.36.12.086.08.128.197.128.352v.224h.032c.059-.25.174-.445.344-.584.176-.139.403-.208.68-.208h.8v.592h-.8c-.325 0-.578.107-.76.32-.176.213-.264.499-.264.856v1.816h1.256V68H70.86Zm6.557.096c-.341 0-.65-.08-.928-.24a1.788 1.788 0 0 1-.664-.712c-.165-.31-.248-.685-.248-1.128 0-.443.083-.819.248-1.128a1.785 1.785 0 0 1 1.592-.952c.486 0 .867.12 1.144.36.283.24.464.557.544.952h-.56a1.02 1.02 0 0 0-.4-.568c-.192-.144-.434-.216-.728-.216a1.203 1.203 0 0 0-1.088.68c-.117.224-.176.515-.176.872 0 .352.059.645.176.88a1.203 1.203 0 0 0 1.088.68c.315 0 .566-.072.752-.216.187-.15.312-.341.376-.576h.56c-.096.41-.29.733-.584.968-.288.23-.656.344-1.104.344ZM80.47 68v-5.76h.56v2.392c.107-.203.285-.368.536-.496.25-.133.523-.2.816-.2.485 0 .853.147 1.104.44.25.293.376.693.376 1.2V68h-.56v-2.36c0-.368-.09-.656-.272-.864-.181-.208-.437-.312-.768-.312a1.3 1.3 0 0 0-.616.152 1.13 1.13 0 0 0-.448.448c-.112.192-.168.432-.168.72V68h-.56Zm6.517.096a1.85 1.85 0 0 1-.976-.256 1.885 1.885 0 0 1-.672-.728 2.407 2.407 0 0 1-.24-1.104c0-.421.08-.787.24-1.096.16-.31.381-.55.664-.72a1.93 1.93 0 0 1 1-.256c.384 0 .71.088.976.264.267.17.47.395.608.672s.208.576.208.896v.168c0 .059-.003.125-.008.2h-3.144c.016.325.088.595.216.808.133.208.299.365.496.472a1.4 1.4 0 0 0 .632.152c.325 0 .576-.067.752-.2a1.21 1.21 0 0 0 .4-.56h.544c-.086.357-.27.661-.552.912-.278.25-.659.376-1.144.376Zm-.008-3.648c-.336 0-.632.104-.888.312-.25.208-.397.496-.44.864h2.6c-.022-.373-.15-.661-.384-.864-.23-.208-.526-.312-.888-.312Zm4.813 3.648c-.496 0-.902-.117-1.216-.352-.315-.235-.49-.56-.528-.976h.584c.032.235.15.43.352.584.208.155.482.232.824.232.33 0 .573-.072.728-.216.154-.15.232-.312.232-.488 0-.245-.094-.41-.28-.496-.182-.085-.462-.15-.84-.192-.432-.048-.784-.16-1.056-.336-.272-.181-.408-.45-.408-.808 0-.315.133-.579.4-.792.272-.213.637-.32 1.096-.32.458 0 .818.104 1.08.312.266.203.416.501.448.896h-.568a.628.628 0 0 0-.296-.504c-.182-.128-.408-.192-.68-.192-.288 0-.512.053-.672.16a.487.487 0 0 0-.232.432c0 .165.085.307.256.424.17.112.442.187.816.224.277.027.528.077.752.152.23.07.413.184.552.344.138.16.208.384.208.672.005.235-.059.448-.192.64a1.344 1.344 0 0 1-.552.44 1.9 1.9 0 0 1-.808.16ZM96.949 68c-.347 0-.619-.083-.816-.248-.192-.17-.288-.475-.288-.912v-2.328h-1.008v-.48h.6c.277 0 .434-.133.472-.4l.096-.6h.4v1h1.6v.48h-1.6v2.328c0 .24.053.408.16.504.112.096.304.144.576.144h.864V68h-1.056Zm2.692 0v-.48h1.057v-2.848a.153.153 0 0 0-.048-.112.155.155 0 0 0-.112-.048h-.776v-.48h.976c.154 0 .274.04.36.12.085.08.128.197.128.352v.224h.032a1.02 1.02 0 0 1 .344-.584c.176-.139.402-.208.68-.208h.8v.592h-.8c-.326 0-.579.107-.76.32-.176.213-.264.499-.264.856v1.816h1.256V68h-2.873Zm6.173.096c-.314 0-.576-.056-.784-.168a1.127 1.127 0 0 1-.456-.448 1.31 1.31 0 0 1-.144-.608c0-.416.152-.725.456-.928.31-.208.699-.312 1.168-.312h1.136v-.072c0-.373-.09-.653-.272-.84-.176-.192-.429-.288-.76-.288-.277 0-.506.061-.688.184-.176.117-.288.304-.336.56h-.592c.027-.267.115-.49.264-.672.155-.187.35-.328.584-.424.235-.096.491-.144.768-.144.555 0 .958.152 1.208.456.256.299.384.688.384 1.168V68h-.48l-.056-.64h-.048c-.117.197-.28.37-.488.52-.208.144-.496.216-.864.216Zm.088-.512c.267 0 .496-.067.688-.2a1.3 1.3 0 0 0 .44-.52 1.48 1.48 0 0 0 .16-.672v-.08h-1.096c-.394 0-.674.07-.84.208a.677.677 0 0 0-.24.536c0 .224.075.403.224.536.15.128.371.192.664.192Zm5.437.416c-.346 0-.618-.083-.816-.248-.192-.17-.288-.475-.288-.912v-2.328h-1.008v-.48h.6c.278 0 .435-.133.472-.4l.096-.6h.4v1h1.6v.48h-1.6v2.328c0 .24.054.408.16.504.112.096.304.144.576.144h.864V68h-1.056Zm4.429.096c-.368 0-.693-.085-.976-.256a1.88 1.88 0 0 1-.672-.728 2.407 2.407 0 0 1-.24-1.104c0-.421.08-.787.24-1.096.16-.31.381-.55.664-.72a1.93 1.93 0 0 1 1-.256c.384 0 .709.088.976.264.267.17.469.395.608.672s.208.576.208.896v.168c0 .059-.003.125-.008.2h-3.144c.016.325.088.595.216.808.133.208.299.365.496.472a1.4 1.4 0 0 0 .632.152c.325 0 .576-.067.752-.2.181-.139.315-.325.4-.56h.544a1.729 1.729 0 0 1-.552.912c-.277.25-.659.376-1.144.376Zm-.008-3.648c-.336 0-.632.104-.888.312-.251.208-.397.496-.44.864h2.6c-.021-.373-.149-.661-.384-.864-.229-.208-.525-.312-.888-.312Zm4.813 3.648c-.496 0-.901-.117-1.216-.352-.315-.235-.491-.56-.528-.976h.584a.86.86 0 0 0 .352.584c.208.155.483.232.824.232.331 0 .573-.072.728-.216.155-.15.232-.312.232-.488 0-.245-.093-.41-.28-.496-.181-.085-.461-.15-.84-.192-.432-.048-.784-.16-1.056-.336-.272-.181-.408-.45-.408-.808 0-.315.133-.579.4-.792.272-.213.637-.32 1.096-.32.459 0 .819.104 1.08.312.267.203.416.501.448.896h-.568a.628.628 0 0 0-.296-.504c-.181-.128-.408-.192-.68-.192-.288 0-.512.053-.672.16a.486.486 0 0 0-.232.432c0 .165.085.307.256.424.171.112.443.187.816.224.277.027.528.077.752.152.229.07.413.184.552.344.139.16.208.384.208.672.005.235-.059.448-.192.64a1.34 1.34 0 0 1-.552.44c-.229.107-.499.16-.808.16Z"/>
  <g clip-path="url(#a)">
    <path fill="#712375" fill-rule="evenodd" d="M79 11.61c0-4.663-3.715-8.229-7.834-7.52l-11.9 2.049c-3.317.57-5.766 3.764-5.766 7.52v16.667a5.41 5.41 0 0 0-2.55-.64c-3.286 0-5.95 2.98-5.95 6.657C45 40.019 47.664 43 50.95 43s5.95-2.98 5.95-6.657V13.658c0-1.877 1.224-3.474 2.883-3.76l11.9-2.048c2.06-.354 3.917 1.428 3.917 3.76v13.01a5.411 5.411 0 0 0-2.55-.64c-3.286 0-5.95 2.98-5.95 6.657 0 3.676 2.664 6.657 5.95 6.657S79 34.314 79 30.637V11.61Zm-3.4 19.027c0-1.576-1.142-2.854-2.55-2.854s-2.55 1.278-2.55 2.854c0 1.575 1.142 2.853 2.55 2.853s2.55-1.278 2.55-2.854Zm-22.1 5.706c0-1.576-1.142-2.853-2.55-2.853s-2.55 1.277-2.55 2.853c0 1.575 1.142 2.853 2.55 2.853s2.55-1.278 2.55-2.853Z" clip-rule="evenodd"/>
    <path fill="#B185A7" d="M51.422 5.042c-7.841 0-14.198 6.492-14.198 14.5Zm0 4.833c-5.228 0-9.465 4.328-9.465 9.667Zm0 4.833c-2.614 0-4.733 2.164-4.733 4.834Z"/>
  </g>
  <defs>
    <clipPath id="a">
      <path fill="#fff" d="M36 0h47v48H36z"/>
    </clipPath>
  </defs>
</svg>
