<svg xmlns="http://www.w3.org/2000/svg" width="128" height="76" fill="none" viewBox="0 0 128 76">
  <g clip-path="url(#a)">
    <path fill="#712375" fill-rule="evenodd" d="M83.5 11.61c0-4.663-3.715-8.229-7.834-7.52l-11.9 2.049C60.45 6.709 58 9.903 58 13.659v16.667a5.41 5.41 0 0 0-2.55-.64c-3.286 0-5.95 2.98-5.95 6.657 0 3.676 2.664 6.657 5.95 6.657s5.95-2.98 5.95-6.657V13.658c0-1.877 1.224-3.474 2.883-3.76l11.9-2.048c2.06-.354 3.917 1.428 3.917 3.76v13.01a5.411 5.411 0 0 0-2.55-.64c-3.286 0-5.95 2.98-5.95 6.657 0 3.676 2.664 6.657 5.95 6.657s5.95-2.98 5.95-6.657V11.61Zm-3.4 19.027c0-1.576-1.142-2.854-2.55-2.854S75 29.061 75 30.637c0 1.575 1.142 2.853 2.55 2.853s2.55-1.278 2.55-2.854ZM58 36.343c0-1.576-1.142-2.853-2.55-2.853s-2.55 1.277-2.55 2.853c0 1.575 1.142 2.853 2.55 2.853S58 37.918 58 36.343Z" clip-rule="evenodd"/>
    <path fill="#B185A7" d="M55.922 5.042c-7.841 0-14.198 6.492-14.198 14.5l14.198-14.5Zm0 4.833c-5.228 0-9.465 4.328-9.465 9.667l9.465-9.667Zm0 4.833c-2.614 0-4.733 2.164-4.733 4.834l4.733-4.834Z"/>
  </g>
  <path fill="#712375" d="M7.37 63.192c-1.098 0-2.064-.24-2.896-.72a5.192 5.192 0 0 1-1.936-2.048c-.458-.875-.688-1.883-.688-3.024s.23-2.144.688-3.008a5.192 5.192 0 0 1 1.936-2.048c.832-.49 1.798-.736 2.896-.736 1.11 0 2.075.245 2.896.736a5.047 5.047 0 0 1 1.936 2.048c.46.864.688 1.867.688 3.008s-.229 2.15-.688 3.024a5.047 5.047 0 0 1-1.936 2.048c-.82.48-1.786.72-2.896.72Zm0-1.184c.822 0 1.542-.181 2.16-.544a3.74 3.74 0 0 0 1.456-1.584c.352-.693.528-1.52.528-2.48s-.176-1.781-.528-2.464a3.639 3.639 0 0 0-1.456-1.568c-.618-.373-1.338-.56-2.16-.56-.82 0-1.546.187-2.176.56-.618.363-1.104.885-1.456 1.568-.34.683-.512 1.504-.512 2.464s.171 1.787.512 2.48c.352.683.838 1.21 1.456 1.584.63.363 1.355.544 2.176.544Zm12.307 1.184c-.768 0-1.466-.15-2.096-.448-.618-.31-1.114-.784-1.488-1.424-.373-.64-.56-1.456-.56-2.448V51.8h1.344v7.088c0 1.088.262 1.877.784 2.368.523.49 1.206.736 2.048.736.843 0 1.52-.245 2.032-.736.512-.49.768-1.28.768-2.368V51.8h1.344v7.072c0 .992-.186 1.808-.56 2.448a3.513 3.513 0 0 1-1.504 1.424c-.629.299-1.333.448-2.112.448ZM29.553 63V52.904H26.21V51.8h8.032v1.104h-3.344V63h-1.344Zm10.432.192c-.822 0-1.536-.15-2.144-.448-.608-.299-1.078-.715-1.408-1.248-.33-.533-.496-1.152-.496-1.856h1.408c0 .437.101.843.304 1.216.203.363.496.656.88.88.394.213.88.32 1.456.32.757 0 1.344-.181 1.76-.544a1.73 1.73 0 0 0 .624-1.36c0-.448-.096-.805-.288-1.072a2.107 2.107 0 0 0-.784-.672c-.32-.17-.694-.32-1.12-.448a37.298 37.298 0 0 1-1.312-.432c-.864-.299-1.504-.667-1.92-1.104-.416-.448-.624-1.03-.624-1.744-.01-.597.128-1.125.416-1.584.288-.47.693-.832 1.216-1.088.533-.267 1.162-.4 1.888-.4.715 0 1.333.133 1.856.4.533.267.944.635 1.232 1.104a3.02 3.02 0 0 1 .464 1.6h-1.408c0-.31-.08-.613-.24-.912a1.84 1.84 0 0 0-.736-.752c-.32-.192-.726-.288-1.216-.288-.608-.01-1.11.144-1.504.464-.384.32-.576.763-.576 1.328 0 .48.133.848.4 1.104.277.256.661.47 1.152.64.49.16 1.056.347 1.696.56a8.177 8.177 0 0 1 1.44.672c.426.256.757.587.992.992.245.405.368.923.368 1.552 0 .533-.139 1.04-.416 1.52-.277.47-.699.853-1.264 1.152-.555.299-1.254.448-2.096.448ZM46.467 63V51.8h1.344V63h-1.344Zm4.519 0V51.8h3.44c1.973 0 3.424.501 4.352 1.504.938 1.003 1.408 2.379 1.408 4.128 0 1.717-.47 3.077-1.408 4.08-.928.992-2.38 1.488-4.352 1.488h-3.44Zm1.344-1.12h2.064c1.088 0 1.952-.176 2.592-.528a3.092 3.092 0 0 0 1.392-1.536c.277-.672.416-1.467.416-2.384 0-.939-.14-1.744-.416-2.416a3.082 3.082 0 0 0-1.392-1.552c-.64-.363-1.504-.544-2.592-.544H52.33v8.96ZM62.926 63V51.8h6.928v1.104H64.27v3.904h5.104v1.088H64.27v4h5.584V63h-6.928Zm9.831 0V51.8h3.616c.875 0 1.59.144 2.144.432.555.288.966.683 1.232 1.184.267.501.4 1.056.4 1.664a3.31 3.31 0 0 1-.576 1.904c-.373.565-.96.965-1.76 1.2L80.261 63h-1.584l-2.272-4.624h-2.304V63h-1.344Zm1.344-5.68h2.176c.864 0 1.494-.208 1.888-.624.395-.416.592-.95.592-1.6 0-.661-.197-1.184-.592-1.568-.384-.395-1.018-.592-1.904-.592h-2.16v4.384ZM85.95 63l-4.208-11.2h1.456l3.536 9.776 3.568-9.776h1.424L87.517 63H85.95Zm8.112 0V51.8h1.344V63H94.06Zm4.518 0V51.8h3.936c.79 0 1.44.128 1.952.384.523.245.912.587 1.168 1.024.256.427.384.907.384 1.44 0 .725-.197 1.296-.592 1.712a3.02 3.02 0 0 1-1.392.864c.416.075.795.24 1.136.496.342.256.608.576.8.96.203.384.304.805.304 1.264 0 .565-.138 1.083-.416 1.552-.277.459-.688.827-1.232 1.104-.544.267-1.205.4-1.984.4H98.58Zm1.344-6.304h2.496c.715 0 1.264-.165 1.648-.496.384-.341.576-.81.576-1.408 0-.565-.192-1.019-.576-1.36-.373-.341-.938-.512-1.696-.512h-2.448v3.776Zm0 5.184h2.576c.768 0 1.36-.176 1.776-.528.416-.363.624-.864.624-1.504 0-.63-.218-1.13-.656-1.504-.437-.384-1.029-.576-1.776-.576h-2.544v4.112Zm9.081 1.12V51.8h6.928v1.104h-5.584v3.904h5.104v1.088h-5.104v4h5.584V63h-6.928Zm13.4.192c-.822 0-1.536-.15-2.144-.448-.608-.299-1.078-.715-1.408-1.248-.331-.533-.496-1.152-.496-1.856h1.408c0 .437.101.843.304 1.216.202.363.496.656.88.88.394.213.88.32 1.456.32.757 0 1.344-.181 1.76-.544a1.73 1.73 0 0 0 .624-1.36c0-.448-.096-.805-.288-1.072a2.112 2.112 0 0 0-.784-.672c-.32-.17-.694-.32-1.12-.448a36.825 36.825 0 0 1-1.312-.432c-.864-.299-1.504-.667-1.92-1.104-.416-.448-.624-1.03-.624-1.744-.011-.597.128-1.125.416-1.584a2.87 2.87 0 0 1 1.216-1.088c.533-.267 1.162-.4 1.888-.4.714 0 1.333.133 1.856.4a2.96 2.96 0 0 1 1.232 1.104 3.03 3.03 0 0 1 .464 1.6h-1.408c0-.31-.08-.613-.24-.912a1.85 1.85 0 0 0-.736-.752c-.32-.192-.726-.288-1.216-.288-.608-.01-1.11.144-1.504.464-.384.32-.576.763-.576 1.328 0 .48.133.848.4 1.104.277.256.661.47 1.152.64.49.16 1.056.347 1.696.56a8.197 8.197 0 0 1 1.44.672c.426.256.757.587.992.992.245.405.368.923.368 1.552 0 .533-.139 1.04-.416 1.52-.278.47-.699.853-1.264 1.152-.555.299-1.254.448-2.096.448Z"/>
  <path fill="#B185A7" d="M9.698 73.008 8.162 67.4h.72l1.208 4.808 1.376-4.808h.744l1.336 4.808L14.77 67.4h.72L13.922 73h-.768l-1.336-4.624L10.45 73l-.752.008ZM16.64 73v-5.76h.672v2.472c.134-.245.323-.435.568-.568.246-.139.512-.208.8-.208.459 0 .827.144 1.104.432.278.283.416.72.416 1.312V73h-.664v-2.248c0-.827-.333-1.24-1-1.24-.346 0-.637.125-.872.376-.234.245-.352.597-.352 1.056V73h-.672Zm6.762.096c-.378 0-.714-.085-1.008-.256a1.905 1.905 0 0 1-.696-.728c-.165-.31-.248-.675-.248-1.096 0-.416.083-.779.248-1.088.166-.315.395-.557.688-.728a1.995 1.995 0 0 1 1.032-.264c.384 0 .715.088.992.264.283.17.5.397.648.68a1.924 1.924 0 0 1 .216 1.088v.2h-3.16c.016.304.086.557.208.76.128.197.286.347.472.448.192.101.395.152.608.152.278 0 .51-.064.696-.192.187-.128.323-.301.408-.52h.664a1.803 1.803 0 0 1-.616.92c-.298.24-.682.36-1.152.36Zm0-3.592c-.32 0-.605.099-.856.296-.245.192-.386.475-.424.848h2.496c-.016-.357-.138-.637-.368-.84a1.234 1.234 0 0 0-.848-.304ZM26.573 73v-3.968h.608l.056.76c.123-.261.31-.47.56-.624.25-.155.56-.232.928-.232v.704h-.184c-.235 0-.45.043-.648.128a.963.963 0 0 0-.472.416c-.117.197-.176.47-.176.816v2h-.672Zm4.942.096c-.379 0-.715-.085-1.008-.256a1.905 1.905 0 0 1-.696-.728c-.165-.31-.248-.675-.248-1.096 0-.416.083-.779.248-1.088.165-.315.395-.557.688-.728a1.995 1.995 0 0 1 1.032-.264c.384 0 .715.088.992.264.283.17.499.397.648.68a1.924 1.924 0 0 1 .216 1.088v.2h-3.16c.016.304.085.557.208.76a1.3 1.3 0 0 0 .472.448c.192.101.395.152.608.152.277 0 .51-.064.696-.192.187-.128.323-.301.408-.52h.664a1.803 1.803 0 0 1-.616.92c-.299.24-.683.36-1.152.36Zm0-3.592c-.32 0-.605.099-.856.296-.245.192-.387.475-.424.848h2.496c-.016-.357-.139-.637-.368-.84a1.234 1.234 0 0 0-.848-.304Zm8.272 3.592c-.55 0-1.032-.12-1.448-.36a2.595 2.595 0 0 1-.968-1.024c-.23-.437-.344-.941-.344-1.512 0-.57.114-1.072.344-1.504a2.59 2.59 0 0 1 .968-1.024c.416-.245.898-.368 1.448-.368.554 0 1.037.123 1.448.368.416.245.738.587.968 1.024.23.432.344.933.344 1.504 0 .57-.115 1.075-.344 1.512-.23.437-.552.779-.968 1.024-.41.24-.894.36-1.448.36Zm0-.592c.41 0 .77-.09 1.08-.272.314-.187.557-.45.728-.792.176-.347.264-.76.264-1.24s-.088-.89-.264-1.232a1.82 1.82 0 0 0-.728-.784 2.05 2.05 0 0 0-1.08-.28c-.41 0-.774.093-1.088.28a1.88 1.88 0 0 0-.728.784c-.17.341-.256.752-.256 1.232s.085.893.256 1.24c.176.341.418.605.728.792a2.14 2.14 0 0 0 1.088.272Zm5.89.592c-.395 0-.742-.09-1.04-.272a1.89 1.89 0 0 1-.689-.744 2.332 2.332 0 0 1-.24-1.072c0-.4.083-.755.248-1.064.166-.315.395-.56.688-.736.294-.181.64-.272 1.04-.272.326 0 .614.067.864.2s.446.32.584.56V67.24h.672V73h-.608l-.064-.656a1.858 1.858 0 0 1-.552.52c-.24.155-.541.232-.904.232Zm.071-.584c.267 0 .502-.061.704-.184.208-.128.368-.304.48-.528.118-.224.176-.485.176-.784 0-.299-.058-.56-.176-.784a1.225 1.225 0 0 0-.48-.52 1.29 1.29 0 0 0-.704-.192 1.295 1.295 0 0 0-1.184.712 1.732 1.732 0 0 0-.168.784c0 .299.056.56.168.784.118.224.278.4.48.528.208.123.443.184.704.184Zm5.352.584c-.395 0-.742-.09-1.04-.272a1.889 1.889 0 0 1-.688-.744 2.332 2.332 0 0 1-.24-1.072c0-.4.082-.755.248-1.064.165-.315.394-.56.688-.736.293-.181.64-.272 1.04-.272.325 0 .613.067.864.2.25.133.445.32.584.56V67.24h.672V73h-.608l-.064-.656a1.858 1.858 0 0 1-.552.52c-.24.155-.542.232-.904.232Zm.072-.584c.266 0 .501-.061.704-.184.208-.128.368-.304.48-.528a1.67 1.67 0 0 0 .176-.784c0-.299-.059-.56-.176-.784a1.225 1.225 0 0 0-.48-.52 1.29 1.29 0 0 0-.704-.192c-.262 0-.496.064-.704.192a1.294 1.294 0 0 0-.48.52 1.732 1.732 0 0 0-.168.784c0 .299.056.56.168.784.117.224.277.4.48.528.208.123.442.184.704.184Zm3.96-4.36a.472.472 0 0 1-.337-.128.472.472 0 0 1-.128-.336c0-.128.043-.235.128-.32a.472.472 0 0 1 .336-.128c.128 0 .237.043.328.128.09.085.136.192.136.32a.456.456 0 0 1-.136.336.462.462 0 0 1-.328.128ZM54.794 73v-3.968h.672V73h-.672Zm3.81 0c-.362 0-.648-.088-.856-.264-.208-.176-.312-.493-.312-.952V69.6h-.688v-.568h.688l.088-.952h.584v.952h1.168v.568H58.11v2.184c0 .25.05.421.152.512.101.085.28.128.536.128h.416V73h-.608Zm2.358 1.76.984-2.144h-.232l-1.576-3.584h.728l1.312 3.088 1.392-3.088h.696l-2.6 5.728h-.704Zm9.514-1.664c-.549 0-1.032-.12-1.448-.36a2.596 2.596 0 0 1-.968-1.024c-.229-.437-.344-.941-.344-1.512 0-.57.115-1.072.344-1.504.235-.437.558-.779.968-1.024.416-.245.9-.368 1.448-.368.555 0 1.038.123 1.448.368.416.245.74.587.968 1.024.23.432.344.933.344 1.504 0 .57-.114 1.075-.344 1.512a2.522 2.522 0 0 1-.968 1.024c-.41.24-.893.36-1.448.36Zm0-.592c.411 0 .771-.09 1.08-.272a1.87 1.87 0 0 0 .728-.792c.176-.347.264-.76.264-1.24s-.088-.89-.264-1.232a1.82 1.82 0 0 0-.728-.784 2.045 2.045 0 0 0-1.08-.28c-.41 0-.773.093-1.088.28a1.887 1.887 0 0 0-.728.784c-.17.341-.256.752-.256 1.232s.086.893.256 1.24c.176.341.42.605.728.792a2.14 2.14 0 0 0 1.088.272Zm4.09.496v-3.968h.608l.056.76c.123-.261.31-.47.56-.624.25-.155.56-.232.928-.232v.704h-.184c-.235 0-.45.043-.648.128a.963.963 0 0 0-.472.416c-.118.197-.176.47-.176.816v2h-.672Zm4.982.096a2.05 2.05 0 0 1-1.024-.256 1.944 1.944 0 0 1-.712-.728 2.263 2.263 0 0 1-.256-1.096c0-.416.085-.779.256-1.088a1.87 1.87 0 0 1 .712-.728 2.006 2.006 0 0 1 1.024-.264c.469 0 .864.123 1.184.368a1.6 1.6 0 0 1 .616.984h-.688a.868.868 0 0 0-.392-.568 1.281 1.281 0 0 0-.728-.208 1.26 1.26 0 0 0-.632.168c-.198.112-.358.28-.48.504-.123.224-.184.501-.184.832 0 .33.061.608.184.832a1.3 1.3 0 0 0 .48.512c.197.112.408.168.632.168.277 0 .52-.067.728-.2a.9.9 0 0 0 .392-.584h.688c-.08.4-.283.725-.608.976-.326.25-.723.376-1.192.376ZM82.687 73v-5.76h.672v2.472c.134-.245.323-.435.568-.568.245-.139.512-.208.8-.208.459 0 .827.144 1.104.432.278.283.416.72.416 1.312V73h-.664v-2.248c0-.827-.333-1.24-1-1.24-.346 0-.637.125-.872.376-.234.245-.352.597-.352 1.056V73h-.672Zm6.762.096c-.378 0-.714-.085-1.008-.256a1.903 1.903 0 0 1-.696-.728c-.165-.31-.248-.675-.248-1.096 0-.416.083-.779.248-1.088.166-.315.395-.557.688-.728a1.994 1.994 0 0 1 1.032-.264c.384 0 .715.088.992.264.283.17.499.397.648.68a1.924 1.924 0 0 1 .216 1.088v.2h-3.16c.016.304.086.557.208.76.128.197.286.347.472.448.192.101.395.152.608.152.278 0 .51-.064.696-.192a1.1 1.1 0 0 0 .408-.52h.664a1.803 1.803 0 0 1-.616.92c-.298.24-.682.36-1.152.36Zm0-3.592c-.32 0-.605.099-.856.296-.245.192-.386.475-.424.848h2.496c-.016-.357-.138-.637-.368-.84a1.235 1.235 0 0 0-.848-.304Zm4.691 3.592c-.475 0-.87-.12-1.184-.36a1.403 1.403 0 0 1-.552-.976h.688c.043.208.152.39.328.544.181.15.424.224.728.224.283 0 .49-.059.624-.176a.57.57 0 0 0 .2-.432c0-.24-.088-.4-.264-.48a3.367 3.367 0 0 0-.728-.216 4.127 4.127 0 0 1-.64-.184 1.48 1.48 0 0 1-.536-.336.806.806 0 0 1-.216-.584c0-.347.128-.63.384-.848.261-.224.613-.336 1.056-.336.421 0 .765.107 1.032.32.272.208.43.507.472.896h-.664a.672.672 0 0 0-.264-.472c-.144-.117-.339-.176-.584-.176-.24 0-.427.05-.56.152a.485.485 0 0 0-.192.4c0 .16.083.285.248.376.17.09.4.168.688.232a5.3 5.3 0 0 1 .696.2c.224.075.405.19.544.344.144.15.216.368.216.656.005.357-.13.653-.408.888-.272.23-.643.344-1.112.344ZM98.408 73c-.362 0-.648-.088-.856-.264-.208-.176-.312-.493-.312-.952V69.6h-.688v-.568h.688l.088-.952h.584v.952h1.168v.568h-1.168v2.184c0 .25.051.421.152.512.102.085.28.128.536.128h.416V73h-.608Zm1.926 0v-3.968h.608l.056.76c.123-.261.309-.47.56-.624.251-.155.56-.232.928-.232v.704h-.184c-.235 0-.451.043-.648.128a.963.963 0 0 0-.472.416c-.117.197-.176.47-.176.816v2h-.672Zm4.626.096c-.33 0-.605-.056-.824-.168a1.147 1.147 0 0 1-.488-.448 1.211 1.211 0 0 1-.16-.608c0-.405.155-.717.464-.936.31-.219.731-.328 1.264-.328h1.072v-.048c0-.347-.09-.608-.272-.784-.181-.181-.424-.272-.728-.272-.261 0-.488.067-.68.2a.851.851 0 0 0-.352.568h-.688c.027-.288.123-.53.288-.728.171-.197.382-.347.632-.448a2.02 2.02 0 0 1 .8-.16c.555 0 .971.15 1.248.448.283.293.424.685.424 1.176V73h-.6l-.04-.712a1.59 1.59 0 0 1-.496.576c-.213.155-.501.232-.864.232Zm.104-.568c.256 0 .475-.067.656-.2.187-.133.328-.307.424-.52a1.62 1.62 0 0 0 .144-.672v-.008h-1.016c-.394 0-.674.07-.84.208a.629.629 0 0 0-.24.504c0 .208.075.376.224.504.155.123.371.184.648.184Zm4.763.472c-.363 0-.648-.088-.856-.264-.208-.176-.312-.493-.312-.952V69.6h-.688v-.568h.688l.088-.952h.584v.952h1.168v.568h-1.168v2.184c0 .25.051.421.152.512.101.085.28.128.536.128h.416V73h-.608Zm3.6.096a1.97 1.97 0 0 1-1.008-.256 1.91 1.91 0 0 1-.696-.728c-.165-.31-.248-.675-.248-1.096 0-.416.083-.779.248-1.088.166-.315.395-.557.688-.728a1.996 1.996 0 0 1 1.032-.264c.384 0 .715.088.992.264.283.17.499.397.648.68a1.916 1.916 0 0 1 .216 1.088v.2h-3.16c.016.304.086.557.208.76.128.197.286.347.472.448.192.101.395.152.608.152.278 0 .51-.064.696-.192.187-.128.323-.301.408-.52h.664a1.799 1.799 0 0 1-.616.92c-.298.24-.682.36-1.152.36Zm0-3.592c-.32 0-.605.099-.856.296-.245.192-.386.475-.424.848h2.496c-.016-.357-.138-.637-.368-.84a1.234 1.234 0 0 0-.848-.304Zm4.691 3.592c-.475 0-.869-.12-1.184-.36a1.401 1.401 0 0 1-.552-.976h.688c.043.208.152.39.328.544.181.15.424.224.728.224.283 0 .491-.059.624-.176a.57.57 0 0 0 .2-.432c0-.24-.088-.4-.264-.48a3.366 3.366 0 0 0-.728-.216 4.13 4.13 0 0 1-.64-.184 1.484 1.484 0 0 1-.536-.336.806.806 0 0 1-.216-.584c0-.347.128-.63.384-.848.261-.224.613-.336 1.056-.336.421 0 .765.107 1.032.32.272.208.429.507.472.896h-.664a.675.675 0 0 0-.264-.472c-.144-.117-.339-.176-.584-.176-.24 0-.427.05-.56.152a.485.485 0 0 0-.192.4c0 .16.083.285.248.376.171.09.4.168.688.232.245.053.477.12.696.2.224.075.405.19.544.344.144.15.216.368.216.656.005.357-.131.653-.408.888-.272.23-.643.344-1.112.344Z"/>
  <defs>
    <clipPath id="a">
      <path fill="#fff" d="M40.5 0h47v48h-47z"/>
    </clipPath>
  </defs>
</svg>
