<svg xmlns="http://www.w3.org/2000/svg" width="360" height="360" fill="none" viewBox="0 0 360 360">
  <path fill="#B185A7" d="M322.811 312.958a9.006 9.006 0 0 0 1.927-10.17 25.986 25.986 0 0 1-12.439 5.078c4.555-2.628 4.033-6.842 4.033-10.514 5.778-.882 5.777-6.838 4.373-11.914a70.162 70.162 0 0 1-5.075 1.924 72.876 72.876 0 0 0-.702-8.424c8.064-2.628 12.096-6.84 7.704-15.768a12.438 12.438 0 0 1-8.767 10.692V262.63c8.586-4.374 4.986-12.474-3.6-15.246-25.938-8.316-24.732 17.192-19.116 27.182a16.47 16.47 0 0 0 .181 10.8c-11.286-7.758-31.699-7.022-32.257 6.658-.36 7.002-1.404 13.664-1.404 13.664s-3.851.54-4.391 3.168-1.044 12.436 1.404 15.424c2.448 2.988 12.095 4.374 18.935 4.032a29.702 29.702 0 0 0 22.788-11.232c5.724-5.526 20.61-6.588 26.406-4.122Zm-42.426-113.957c4.914-18.756 12.096-53.82 17.172-73.8 4.212-16.488-2.448-19.458-17.172-22.104-54.792-9.828-56.34-10.475-62.586 14.202-2.556 10.08-13.5 55.35-14.544 61.362-1.044 6.012-1.584 12.797 5.4 15.083 16.2 5.4 30.33 8.767 45.594 12.799 9.648 2.808 22.806 5.598 26.136-7.542Zm-73.98-20.52c4.374-19.278 9.63-41.022 14.904-60.12 5.562-20.124 2.178-22.553 58.554-11.574 12.6 2.448 18 3.33 14.4 17.874-19.638 77.112-9.882 86.4-39.096 78.894-47.844-12.87-51.876-11.503-48.762-25.074ZM281.429 67.17c-5.526 5.274-8.406 5.706-3.15 14.202 2.106 3.492 3.6 1.314 8.244-3.87 2.394-2.664 0-5.778-1.584-9.63-.54-1.404-1.62-2.502-3.51-.702Z"/>
  <path fill="#B185A7" d="M321.928 16.627c-30.078-2.736-38.628-5.49-42.606 8.406-5.256 18.936-9.63 36.468-12.798 53.118-2.79 14.04 4.914 13.86 24.912 17.01 39.6 6.192 37.332 11.232 45.918-28.404 10.242-47.178 16.848-46.638-15.426-50.13Zm19.458 17.172c-17.82 67.932-9.792 63.161-32.256 60.48-5.958-.703-20.34-3.15-32.256-5.256-11.52-2.178-7.398-7.83 5.094-58.734 2.448-9.81 3.492-13.14 14.184-12.258 10.692.882 23.148 1.8 33.84 3.15 9.468 1.278 14.382 1.098 11.394 12.672v-.054Zm-82.187 101.394c-3.33-3.33-10.512-11.394-12.96-4.212-1.404 4.032-6.318 17.352 2.97 14.724 5.4-1.584 16.632-3.672 9.99-10.512Zm41.687 188.279c-4.734 4.734-5.958 17.19 2.286 20.16 17.172 6.21 31.968-5.256 22.968-20.682-3.852-6.498-18.936-5.958-25.254.522ZM97.541 101.226c-8.28-1.602-16.488-3.15-24.912-4.212-16.47-2.268-22.248-2.268-25.758 15.606-3.51 15.786-7.902 34.2-11.754 49.788-.864 3.87-1.404 10.17 4.392 12.6 10.692 4.554 23.13 8.406 35.406 12.258 18 5.616 19.98-2.79 23.4-18 2.646-10.512 9.648-38.034 12.456-48.726 3.42-12.87-1.188-17.028-13.23-19.314Zm9.45 18.414c-4.302 15.876-10.692 43.2-14.886 58.896-2.466 8.766-9.306 7.362-16.308 5.4-10.692-2.97-22.266-6.66-32.4-10.512-6.138-2.286-6.48-5.4-5.076-10.8 15.012-57.456 11.412-64.296 25.758-62.586 11.016 1.314 22.086 2.988 32.958 5.256 9.954 1.332 12.924 3.366 9.954 14.292v.054Zm19.998-75.437c4.086-13.537-9.648-12.457-25.416-13.32-9.468-.54-14.202.341-17.19 10.692-12.132 39.941-16.578 38.573 7.2 43.2 27.036 5.183 21.06 6.822 35.406-40.573Zm-24.552 38.915c-20.934-3.761-25.776-3.6-24.372-10.35s8.424-28.224 10.8-34.002c2.322-6.102 5.868-5.561 26.82-3.852 5.4.523 9.81 2.106 7.704 8.227-11.07 39.563-9.306 42.137-20.952 39.977Zm118.692-27c3.33-12.978 2.106-19.638-12.456-21.384-12.798-1.584-24.354-2.448-39.96-3.33-22.392-1.116-26.802-1.152-32.616 20.502-2.772 10.386-13.716 54.81-15.606 64.692-2.088 10.53 1.8 14.562 11.934 17.01 54 13.194 58.716 13.68 64.8 8.064 6.462-6.642 6.336-14.382 23.904-85.554Zm-45.414 83.448c-49.428-10.98-55.71-9.738-52.416-23.49 5.958-23.49 11.754-48.204 18.234-71.172 2.808-9.648 10.35-10.692 17.352-10.35 16.83.522 29.466 1.404 43.668 3.15 14.202 1.746 18.918 1.8 14.886 17.712-4.896 19.458-12.96 56.628-18.234 74.682-3.672 12.798-13.32 11.754-23.49 9.468Zm45.055 25.776c-7.794 7.524-9 7.056-7.704 11.052.378 1.206 1.584 4.896 2.808 7.884 2.106 6.66 8.406-2.988 10.512-4.212 3.33-3.33-.522-8.766-1.224-13.5-.522-1.926-1.962-3.546-4.392-1.224Z"/>
  <path fill="#B185A7" d="M132.947 106.788c-2.808 3.33-.702 7.704 1.8 12.978 1.8 3.852 3.69 1.404 10.8-5.976 2.988-3.15.18-7.524-1.566-11.394-2.088-4.77-5.076-2.448-11.034 4.392Zm-49.608-37.35c-1.242 1.242-1.062 1.404.522 5.4.702 1.8 1.404.702 5.076-2.268 1.224-1.224-.342-3.87-1.044-5.4-.882-2.106-2.286 0-4.554 2.268Zm-38.574 86.778c-1.404 1.584-1.8 1.944.882 9.126 1.566 3.924 3.924 1.332 8.406-3.15 1.926-2.466 1.584-2.466-1.044-9.648-1.062-2.988-3.168-1.746-8.244 3.672Z"/>
  <path fill="#001434" d="M295.469 83.819c2.97 2.106 15.588 3.33 19.458 3.33 1.404 0 3.15-2.106.162-3.51s-11.556-2.268-16.65-2.97c-4.212-.36-4.032 2.268-2.97 3.15Zm-32.977-26.116c-5.4-1.333-35.316-6.463-36.45-2.629-.756 2.503 2.952 3.007 37.692 6.66 3.15.343 4.464-2.808-1.242-4.032Zm-63.629 26.478c3.33-13.338 5.958-17.532.702-24.21-13.302-16.92-9.684-15.354-36.81-16.65-6.498-.342-10.53-1.224-13.158 7.884-13.572 50.4-18 43.398 23.4 50.148 21.492 3.474 20.61 3.474 25.866-17.172Zm-12.096-33.84a76.22 76.22 0 0 1 11.574 14.4c-16.344-1.8-13.734.36-11.574-14.4Zm-2.988 24.894a3.902 3.902 0 0 1-3.15-.36c-.18-.522 0-2.448.522-2.628a5.509 5.509 0 0 1 2.988.36c.342.342.18 2.448-.36 2.628Zm-7.2-.36c.522-.162 2.808 0 2.988.36.18.36.162 2.808-.36 2.97-.522.162-2.628 0-2.97-.522-.342-.522-.162-2.628.36-2.808h-.018Zm-3.15-1.044a3.295 3.295 0 0 1 .522-2.448 3.005 3.005 0 0 1 2.988.342c.342.522-.18 2.286-.882 2.448-.702.162-2.43.054-2.61-.342h-.018Zm4.374-2.808a3.767 3.767 0 0 1 .522-2.448 8.276 8.276 0 0 1 2.988.162c.36.36 0 2.106-.522 2.466-.522.36-2.79.342-2.97-.18h-.018Zm-28.8 22.608c-4.23-.792-5.958-1.926-5.076-6.3 2.628-12.798 5.4-24.012 9.45-37.35 1.062-3.6 3.87-3.6 9-3.33 8.244.522 11.232.702 21.222 1.926-1.242 6.156-2.826 13.536-1.062 15.966-4.734 1.404-9.288 1.8-12.6.522-2.988-1.062-2.286-3.51-5.778-3.51-5.274 0-11.412 13.5-12.276 16.65-1.062 4.032 0 6.138 3.51 5.4 2.97-.522 5.958-4.734 9.81-4.374 8.424.702 12.456.342 15.948 7.362 2.628 5.256 7.542 1.224 8.424-3.33a36.69 36.69 0 0 0-1.8-16.65c3.51.684 7.722 1.044 11.394 1.566a275.334 275.334 0 0 1-7.2 28.224c-1.692 5.274-6.57 4.14-42.894-2.772h-.072Zm14.4-20.862c-.54-.522-1.944 0-2.466-.702a1.8 1.8 0 0 1 .702-2.448c.702-.342 2.286.36 2.628 0 .342-.36.36-1.404 1.062-2.106a2.918 2.918 0 0 1 2.97.36c.36.522-.522 1.926-.162 2.268.36.342 2.088.36 2.448.882a2.252 2.252 0 0 1-.702 2.448c-.702.36-2.286-.162-2.628 0-.342.162-.522 1.944-1.062 2.466-.54.522-2.448.702-2.79-.36-.828-1.044.396-2.268.054-2.808h-.054Zm24.246 40.679c-2.988-1.224-24.732-5.4-29.628-5.4-3.33 0-3.69 3.69-.702 4.392 2.988.702 26.82 5.4 30.15 5.598 3.33.198 3.15-3.366.18-4.59Zm74.844-39.799c2.106-.882.36-2.628-3.33-3.15-3.69-.522-21.726-2.988-27-3.6-5.274-.612-7.02 1.062-5.4 2.106 1.926 1.206 33.048 5.544 35.73 4.644Zm1.062 103.97c-2.988-1.8-19.8-5.4-23.85-5.958-4.05-.558-5.076 2.97-2.808 4.032 4.914 2.088 20.88 5.778 25.2 5.778 3.744 0 3.204-2.844 1.458-3.852Zm10.17-14.723c2.97-9.828 4.734-17.19 6.66-25.434 1.926-8.244-.522-8.766-10.692-21.906-2.106-2.628-4.554-2.988-8.766-3.852-22.356-5.094-28.53-5.004-30.852 6.66-6.48 30.834-13.32 39.42-2.286 41.724 6.138 1.404 25.074 6.84 36.108 8.586 7.902 1.224 8.766-2.286 9.828-5.778Zm-9-36.468c.522-2.466 1.584-5.958 2.286-8.586 3.492 4.032 6.66 8.586 9.81 12.96-11.25-2.412-12.654-1.674-12.042-4.374h-.054Zm2.628 6.3c5.796 23.85-33.336 26.802-31.554 3.33.936-12.294 15.606-15.768 25.416-11.214-1.098 5.526 1.368 6.678 6.192 7.884h-.054Zm-3.33 32.256c-11.916-2.448-23.31-4.896-35.064-8.064-2.97-.864-4.482-1.206-3.6-4.374 10.332-40.842 7.2-42.012 19.278-40.5 3.51.522 19.458 3.852 19.458 3.852-.522 1.404-1.8 6.138-1.8 6.138-17.19-10.332-39.276 9.126-26.118 26.658 12.438 14.544 39.6 4.734 34.884-15.426 2.268.342 4.374.702 6.48 1.224-6.804 27.936-5.94 32.004-13.464 30.492h-.054Zm62.298-103.069c6.75-25.56 7.2-19.692-2.286-30.33-2.106-2.106-4.734-5.616-8.064-5.976-17.172-1.566-24.894-3.15-26.82 3.69-2.286 8.406-5.256 18-7.2 26.64-1.062 4.212.702 7.722 5.4 8.424a1588.046 1588.046 0 0 1 27 4.374c6.354 1.062 10.044.702 11.97-6.822Zm-7.722-30.888c2.628 2.646 5.094 5.4 7.542 7.902-5.4 0-7.362.162-8.064-1.062s-.36-4.014.522-6.84Zm-1.584 16.488c-6.822-.702-14.022-1.404-22.248-2.448 1.926-7.38 4.374-5.4 6.822-2.286a3.04 3.04 0 0 0 2.286 1.224c5.058.558 5.904 1.044 8.244-.522 3.978-3.96 5.22-1.566 4.896 4.05v-.018Zm-1.386 7.884c-3.33 4.212-16.2 1.584-18.774.702a3.704 3.704 0 0 1-2.97-3.15 10.802 10.802 0 0 0 11.214-4.032c2.988 5.274 7.02 6.858 10.53 6.498V55.4Zm-22.626-25.776a5.054 5.054 0 0 1 4.734-2.088c5.935.085 11.855.609 17.712 1.566a27.525 27.525 0 0 0-1.584 9.126 14.225 14.225 0 0 0-4.554 2.97l-5.076-.522c-7.02-8.406-11.052-3.15-13.158 4.032-.882-.18-1.584-.18-2.448-.342.702-1.926 2.97-11.538 4.374-14.724v-.018Zm-5.076 31.572c-5.4-1.152-1.8-6.912.162-14.202a10.554 10.554 0 0 0 2.106 3.852c-1.566 9.99 13.86 9.99 19.458 9.99 3.51 0 9.306-.702 9.828-7.002a10.615 10.615 0 0 0 4.374-5.616c-6.048-.864-2.466 1.098-4.032-5.958 2.466.162 4.734.162 7.2.342a88.471 88.471 0 0 1-5.274 20.52c-1.476 3.906-3.744 2.304-33.75-1.908l-.072-.018Zm-53.298 122.833c-.522 2.448 1.926 3.328 9.648 5.254 9 2.106 13.194 3.71 14.4 1.064 1.44-3.24-23.346-9.756-24.048-6.318Zm78.192-105.823c2.808.54 3.51-2.448.522-3.33-17.532-5.148-18.882.342-14.724 1.242 2.448.522 11.394 1.566 14.202 2.088Zm-39.978 219.33c15.264.378 14.076-10.08 10.692-7.02-4.212 3.852-9 4.284-12.798 4.734-1.746.198-1.404 2.286 2.106 2.286Zm31.915-38.052a21.655 21.655 0 0 0 6.84-1.404c3.33-1.404 3.492-4.212 1.566-3.51a45.922 45.922 0 0 1-12.276 2.466c-2.268.126-1.224 2.592 3.87 2.448Zm-11.359-8.588a33.811 33.811 0 0 1 14.4-2.806c4.032.18 1.926-3.15-5.778-3.15-12.474 0-15.174 9.61-8.622 5.956Zm-35.622-6.138c-6.678-2.448-65.754-21.384-69.606-22.608-3.852-1.224-4.392 1.044 1.224 3.33 11.556 4.626 61.704 20.106 61.884 20.16 7.182 2.106 13.5 1.566 6.498-.882Zm-182.34 29.45c-45-19.242-49.284-19.494-47.682-25.938.72-3.276-6.912.214-2.448 6.658 3.078 4.428 16.47 9.11 21.906 11.396 27.126 11.628 26.604 10.224 28.404 12.798 1.404 2.286 2.628 5.614 5.778 6.838 30.924 10.8 36 17.244 45.774 14.4a9.121 9.121 0 0 1 7.002.704c47.664 20.43 59.4 28.242 92.214-.162 1.224-1.062 1.404-4.572-8.064 2.448-27.684 20.142-40.572 12.78-79.2-4.032-13.68-5.958-11.754 1.044-20.682-2.448-9.648-3.87-21.924-8.424-34.902-13.5-4.77-1.962-3.708-7.236-8.1-9.162Z"/>
  <path fill="#001434" d="M87.011 261.068c2.286-4.212-4.734.342-6.138 1.8-8.406 8.424 4.734 12.6 10.8 15.084 22.95 9 25.578 10.278 27.522 8.586.522-.522-.864-1.926-4.896-3.33-3.69-1.224-33.588-11.934-32.796-15.786.702-3.042 3.924-3.546 5.508-6.354Zm159.012 10.691c-27.306 17.01-28.638 21.598-49.788 13.84-22.086-7.704-106.074-38.914-126.936-49.786-11.628-5.814 15.102-17.136 19.998-21.204 5.004-5.022-16.092 4.428-24.03 11.916-3.852 3.51-4.374 9.828.54 11.916 27.864 12.456 100.8 40.68 138.312 53.298 14.958 5.058 27.738-6.426 46.278-19.98 1.728-1.332 1.944-3.852-4.374 0Zm66.798 38.393c8.244-1.8 14.904-6.498 13.32-15.786 1.926-2.268 2.448-3.492 2.448-7.542 0-3.492.36-5.4-1.224-7.884 1.062-6.48 1.062-13.662-3.6-19.458 2.088-28.368-41.004-25.416-45.936-6.66-1.224 4.554 0 12.978 2.628 16.83-.882 1.8-.882 2.988-.522 5.958-13.338-3.6-33.84 2.466-32.094 18.936-6.3 4.554-5.598 15.948-3.6 21.222 6.3 16.2 49.086 13.842 44.532-8.064.162-.18.522-.36.702-.702a30.154 30.154 0 0 0 16.47 3.6c-13.14 1.8-18.396 12.096-15.606 24.372 3.132 14.058 37.98 15.93 43.488 1.404 1.044-2.628 1.044-9.99-.522-14.4-2.61-7.452-10.314-12.528-20.484-11.826Zm12.276-26.658c.684 3.87-.504 7.578-2.466 9-6.93 4.86-22.266 4.554-28.926 1.8a15.56 15.56 0 0 0-.522-5.796c10.35 3.42 24.894 2.376 31.914-5.004Zm-.54-10.512c.18 5.094-1.224 7.722-5.256 10.35-9.288 5.958-29.268 3.852-33.48-4.914a8.523 8.523 0 0 1-.882-4.914c10.53 8.604 29.628 10.35 39.618-.522Zm-20.322 3.6c9-.54 17.352-4.212 18.756-11.934.162 9.378-10.35 12.726-18.792 12.024l.036-.09Zm13.32-28.062a6.943 6.943 0 0 1-.54 9.288c-8.064 7.542-29.97 6.138-34.002-3.492-3.906-8.712 24.264-19.224 34.542-5.706v-.09Zm-36.288 9.828c7.884 9.468 30.6 10.17 39.096 1.404-.882 18.234-31.572 15.246-36.828 6.138a13.261 13.261 0 0 1-2.268-7.452v-.09Zm-21.744 22.428c9.99-4.896 25.776-3.33 29.268 6.138a7.825 7.825 0 0 1 .305 4.385 7.822 7.822 0 0 1-2.105 3.859c-12.996 12.654-48.618-3.708-27.468-14.292v-.09Zm-10.8 19.998c1.584 8.226 15.246 13.14 27.882 11.736-13.032 4.14-31.554-2.052-27.954-11.646l.072-.09Zm36 14.4c-6.498 11.052-39.456 9.468-38.232-6.66 8.244 10.8 30.87 12.096 39.276 1.8a9.276 9.276 0 0 1-1.17 4.914l.126-.054Zm-31.212-12.798a14.4 14.4 0 0 1-1.584-7.362c6.66 9.828 28.8 12.6 38.232 2.286-2.16 17.244-32.202 12.906-36.774 5.13l.126-.054Zm38.214 1.926a16.31 16.31 0 0 0 1.926-6.3c9.306 3.33 23.148 2.808 29.628-1.584-1.836 12.6-21.42 13.086-31.68 7.938l.126-.054Zm36.468 14.904a6.367 6.367 0 0 1 .702 7.362c-5.778 10.008-28.404 9-34.002-1.224-4.68-10.17 24.246-16.92 33.174-6.084l.126-.054Zm2.286 16.83c-5.958 10.53-38.232 9.828-36.99-7.002 8.226 10.17 31.194 10.512 37.692 0a15.805 15.805 0 0 1-.828 7.056l.126-.054ZM156.598 119.407c-3.87-.18-4.212 3.168-.882 4.212 3.33 1.044 16.83 3.852 19.638 4.212 2.808.36 5.616-2.628.882-4.212a113.167 113.167 0 0 0-19.638-4.212Z"/>
  <path fill="#001434" d="M312.641 330.133c.342 1.404 5.778 1.404 10.17-1.044 4.914-2.628 3.6-6.84 1.926-5.256-5.616 5.778-12.438 4.374-12.096 6.3Zm-11.214-7.003a32.115 32.115 0 0 1 14.724-4.572c3.6-.162.342-2.972-5.256-2.45-13.662 1.116-12.816 9.326-9.468 7.022Zm-42.967-32.256c1.584.522 1.944-3.87 6.138-5.976s10.692-2.088 9.648-3.6c-.702-1.224-6.66-1.8-12.438 1.224-5.274 2.556-5.274 7.812-3.348 8.352Zm85.339-219.149c-3.69-1.8-4.428 1.098-2.466 3.15 2.412 2.52 6.498 6.318 4.914 17.532-6.138 40.5-27.27 129.762-28.404 134.118-1.134 4.356-1.8 7.722 0 7.722 1.404 0 2.988-1.062 4.212-6.84 1.224-5.778 17.01-73.458 19.278-84.852 10.386-50.13 13.77-63.684 2.466-70.83ZM230.236 247.567c-1.8-.27-3.168 1.08-14.724 8.586-6.48-2.808-12.96-5.616-19.458-8.064a55.556 55.556 0 0 0 7.722-6.482c2.232-2.322.162-2.808-3.51-.54-3.672 2.268-5.616 3.512-8.244 5.276-10.17-3.87-14.706-5.762-16.65-4.736-1.944 1.026 1.584 2.628 12.798 7.002-6.138 4.032-12.276 8.244-18.234 12.798-4.212-1.8-8.424-3.6-12.6-5.4 4.194-3.492 8.064-6.66 8.064-7.704 0-1.044-1.404-1.402-3.69.182-2.286 1.584-5.256 3.598-8.406 5.776-9.648-4.212-18.756-8.062-28.404-11.572 4.032-2.448 7.884-5.078 11.916-7.544 3.852 1.404 8.424 3.168 13.32 4.914 4.392 1.584 7.2-.342 4.212-1.584-4.032-1.566-9.288-3.852-13.68-5.778 4.032-2.628 8.064-5.094 11.934-7.722 8.046 2.808 13.284 5.166 15.246 4.392 1.404-.522.702-1.8-11.736-6.84 5.778-3.852 8.586-7.2 6.48-7.02-2.106.18-5.094 2.108-10.692 5.618-6.138-2.106-12.276-4.214-18.594-6.14l6.318-3.6c3.6-2.124.198-4.86-11.214 2.268-5.274-1.8-10.17-3.492-11.574-2.268-2.106 1.926 5.616 4.196 7.2 4.736-1.8.864-8.064 3.852-5.076 4.896 2.106.702 4.896-.864 9.81-3.492 6.66 1.926 12.798 4.03 19.116 6.136-4.032 2.628-8.064 5.078-11.934 7.706-9.63-3.852-12.6-3.6-13.662-3.15-1.908.9-.18 1.564 9.81 5.596-3.852 2.466-7.704 5.096-11.574 7.544-9.108-3.33-18-6.66-27-10.332 2.989-1.944 4.213-2.988 6.84-4.572 3.33-2.268 4.032-6.302-.342-3.854-4.374 2.448-6.84 4.392-10.35 6.66-3.852-1.926-7.884-2.808-9.288-1.8-1.043 1.044 3.33 2.81 5.959 4.034-2.269 1.404-5.076 3.6-3.15 4.374 1.584.54 4.032-1.044 6.84-2.628 9.288 3.852 17.531 6.84 26.639 10.35-6.66 4.914-5.256 6.658-3.6 6.478 1.656-.18 5.094-3.15 7.542-4.914 9.648 3.69 19.278 7.38 28.8 11.574-3.852 2.988-6.12 5.616-3.852 5.616 1.404 0 2.628-.702 7.542-4.032a726.944 726.944 0 0 0 12.978 5.616c-4.392 4.194-.882 4.896 3.6 1.566 7.362 2.988 11.934 1.584 3.168-2.268 6.3-4.734 11.736-8.424 18.576-12.978a567.641 567.641 0 0 1 19.638 8.064c-4.104 2.79-19.584 12.926-20.34 16.31-.378 3.6 11.79-6.122 24.192-14.726 5.778 2.268 9.81 4.374 12.096 3.6 2.286-.774-1.044-2.268-8.586-6.138 3.6-2.628 5.616-3.852 8.586-5.958 4.104-1.386 4.464-3.832 3.222-3.832ZM117.161 49.277c.36-2.628-2.052-5.274-3.492-7.362-3.078-4.428-4.212-3.852-16.668-4.734a5.4 5.4 0 0 0-5.778 4.212c-4.931 14.094-7.11 20.916-1.8 22.446 2.305.648 11.052 2.448 16.2 3.15 8.55 1.08 7.992-3.564 11.538-17.712Zm-7.2-6.3a27.212 27.212 0 0 1 2.628 3.6c-1.224-.162-2.448-.342-3.15-.522.02-1.048.202-2.086.54-3.078h-.018Zm-3.852 20.16a125.045 125.045 0 0 1-14.201-2.466c-1.585-.342-2.989-.342-1.927-4.734 3.51-13.428 4.428-15.318 7.543-15.588 0 0 7.883.702 9.287.864-.882 7.362-.54 7.722 6.66 9-2.808 13.104-2.934 13.302-7.272 12.924h-.09Z"/>
  <path fill="#001434" d="M106.649 57.343c-.522-1.566-.882-2.448-.882-2.448s1.926-1.584 1.926-2.808c-.468-2.898-3.006-3.924-3.492-.522-3.204-5.85-3.042-5.904-6.66-7.722-.702-.162-.882-.342-1.062.54 0 5.04.234 3.114 4.032 9.108-1.926-.522-3.33.18-3.6.702s.36 2.106 2.466 2.988a9.362 9.362 0 0 0 3.492-.36 14.356 14.356 0 0 1 1.8 1.8 1.55 1.55 0 0 0 .483 1.908 1.547 1.547 0 0 0 1.965-.108 1.563 1.563 0 0 0 1.146-1.749 1.566 1.566 0 0 0-1.614-1.33Zm18.575 123.245c1.134-4.752 8.064-33.3 9.306-38.034 1.242-4.734-1.944-5.094-4.212-.522s-9.648 36.99-10.17 41.184c-.522 4.194 3.924 2.268 5.076-2.628Zm12.637 3.169c6.3 1.8 119.916 36 160.758 46.278 8.406 2.106 11.214-2.106 12.978-9.828 1.8-7.362 19.98-84.492 25.416-109.044 3.15-14.4 5.076-22.788 3.6-23.652-3.006-2.016-6.462 27.144-32.778 131.4-2.736 11.25-4.482 8.532-35.766 0-41.202-11.916-93.6-26.46-132.192-38.214-4.374-1.404-3.852-3.33-3.492-6.318 1.224-9.108 6.66-26.298 6.3-31.032-.162-1.224-1.8-1.8-3.33 3.6-2.106 7.542-3.6 15.426-5.598 22.968-1.692 7.344-2.214 12.078 4.104 13.842Zm-33.66-108.181c-2.286-.702-9.468-1.926-11.394-1.404-1.926.522-2.286 2.466 0 2.988a93.511 93.511 0 0 0 11.916 1.926c2.106.18 1.926-2.97-.522-3.51Zm-1.405-6.301c-1.926-.36-3.69-.702-7.02-1.062-3.33-.36-4.032 2.466-1.224 3.168a56.662 56.662 0 0 0 9.648 1.566c3.672.36 2.628-2.97-1.404-3.672Z"/>
  <path fill="#001434" d="M235.799 312.961c-28.26 19.17-38.52 24.642-59.598 18.936-9.468-2.628-135.18-52.434-154.458-62.424-8.244-4.374-8.244-8.406-8.244-14.202 0-9.558-1.098-7.2 51.192-35.064 16.488-8.766 39.6-21.204 45.756-24.192 7.902-3.852 17.01-2.448 24.552-.162 32.4 9.63 122.4 37.332 130.788 39.6 9.108 2.448 14.184-.522 6.3-2.628-183.06-49.644-128.412-58.32-209.664-16.668-13.158 7.02-36.99 19.638-45 24.21C11.807 243.697 9 246.325 9 254.911c0 5.958 0 12.6 10.692 18.234 19.278 10.17 127.8 53.118 144.108 59.4 22.446 8.406 33.66 8.064 48.204-.18a230.737 230.737 0 0 0 22.446-14.022c4.95-3.114 4.95-7.848 1.35-5.382ZM64.222 162.535c3.15.702 10.692 3.15 13.842 3.852 3.15.702 2.466-2.79-2.268-4.194s-9.648-3.51-12.978-3.168c-3.33.342-1.746 2.466 1.404 3.51Zm15.085 13.5c1.926.522 4.194-2.448-2.988-4.554-7.182-2.106-13.5-4.734-15.786-4.032-5.742 2.394 12.114 6.768 18.774 8.586Zm12.493-26.64c6.696-26.118 8.496-22.464-4.032-37.17-3.6-4.554-7.02-4.032-20.34-5.616-10.8-1.134-10.512 5.742-17.532 32.778-1.566 5.796 2.285 9 6.66 9.828 24.444 6.732 32.364 11.196 35.243.18Zm-6.48-34.362a74.71 74.71 0 0 1 7.002 9.63c-8.64-2.088-9.684.36-7.056-9.63h.053Zm-5.796 36.468c-2.808-.54-21.025-5.274-23.4-5.976-5.077-1.8-3.33-4.734 1.223-21.024 2.34-8.55 2.736-15.282 9.99-14.4 5.076.396 10.118 1.16 15.084 2.286a50.933 50.933 0 0 0-1.584 5.598c-3.51.522-13.14-.864-12.96 2.466.163 2.628-2.987 15.426-5.093 16.65-6.48-3.33-9.288 6.138-2.106 5.4 2.808-.36 5.255-1.584 9.468-18.414a64.941 64.941 0 0 1 10.17-.342 4.844 4.844 0 0 0 4.212 3.15 64.007 64.007 0 0 1-3.51 11.574c-1.8-1.8-7.543-2.106-7.543 2.106 0 2.448 2.107 3.492 4.393 3.15 7.002-1.224 7.002-11.574 9-16.83 2.106.342 4.572.882 6.318 1.044-6.66 24.786-5.239 25.668-13.717 23.562h.055Zm211.733 118.925a2.248 2.248 0 0 0 2.039-1.975 2.253 2.253 0 0 0-1.517-2.399c-2.448-.774-3.15 3.78-.522 4.374Zm7.542 1.15c.466-.01.916-.167 1.287-.449.37-.283.641-.676.774-1.122a2.202 2.202 0 0 0-.842-2.45 2.204 2.204 0 0 0-1.759-.351c-2.268.216-2.628 4.552.54 4.372Zm8.064-.177c1.908-.756 1.332-4.554-.702-4.554-3.132-.018-2.826 5.742.702 4.554Zm8.406-4.572c.36-2.808-3.6-2.448-3.6.18-.27 3.168 3.6 2.646 3.6-.18Zm-27.864-1.026c.342-2.106-2.988-2.988-2.808-.882.18 2.106 2.448 3.15 2.808.882Zm6.822 13.626c-2.628-.702-3.33 3.348-.342 4.032 2.592.486 2.682-3.204.342-4.032Zm14.202 6.172c2.988 0 2.772-4.914-.522-4.554-2.448.36-2.628 4.734.522 4.554Zm8.065-1.924a2.14 2.14 0 0 0 .506-3.456 2.142 2.142 0 0 0-1.208-.576 2.063 2.063 0 0 0-1.636.72 2.082 2.082 0 0 0-.128 2.571 2.093 2.093 0 0 0 2.466.741Zm5.957-5.076c.18-2.106-3.006-1.406-3.15.16-.234 2.628 2.988 2.468 3.15-.16Zm-22.788 2.268c-2.25.378-1.8 4.392 1.062 4.392s2.16-4.734-1.062-4.392Zm-12.799-2.97c.36 2.268 2.628 3.33 2.988 1.044.36-2.286-3.15-3.33-2.988-1.044Zm17.19 13.321a2.122 2.122 0 0 0-.075 4.185 2.121 2.121 0 0 0 2.487-2.471 2.124 2.124 0 0 0-2.412-1.714Zm13.32 2.284c2.412 0 2.124-3.798-.36-3.6a1.818 1.818 0 0 0-1.226.652 1.812 1.812 0 0 0-.334.624c-.069.228-.092.468-.069.705.024.237.095.467.207.677a1.823 1.823 0 0 0 1.782.942Zm-5.075 1.567c1.8-.684 1.26-4.194-.36-4.194-3.33 0-2.484 5.328.36 4.194Zm11.034-5.438c.18-2.448-2.97-2.106-2.97 0-.36 2.628 2.97 2.394 2.97 0Zm-27.001.884a2.249 2.249 0 0 0 .882 4.031c2.88 1.08 2.934-5.453-.882-4.031Zm15.264 14.723c2.79 0 2.448-4.914-.18-4.374a2.214 2.214 0 0 0 .18 4.374Zm-14.598-5.075a2.325 2.325 0 0 0-2.473.952c-.176.26-.297.552-.356.86a2.313 2.313 0 0 0 1.068 2.426 2.311 2.311 0 0 0 2.555-.093c.485-.346.82-.864.934-1.449a2.32 2.32 0 0 0-1.728-2.696Zm7.579.864c-1.584-.342-2.448.36-2.628 1.944-.18 1.584.702 2.448 1.8 2.628 2.592.288 3.114-3.654.828-4.572Zm14.904-.002c-.18-2.268-3.6-1.224-3.33.882 0 2.286 3.672 1.404 3.33-.882Zm-16.649 35.067c-2.466-.702-3.33 4.032-.702 4.392a2.264 2.264 0 0 0 2.236-1.896 2.245 2.245 0 0 0-1.534-2.496Zm13.139 1.403a2.288 2.288 0 0 0-1.419.859 2.297 2.297 0 0 0 .243 3.085 2.308 2.308 0 0 0 3.308-.201 2.3 2.3 0 0 0-.32-3.298 2.304 2.304 0 0 0-1.812-.445Zm5.436.7c-.522 3.168 3.69 2.809 3.69-.179.342-3.15-3.51-2.791-3.69.179Zm-12.276-.7a1.916 1.916 0 0 0-1.423.731 1.92 1.92 0 0 0-.377 1.555c0 1.584.522 2.286 2.106 2.286 2.898 0 3.006-4.932-.306-4.572Zm-13.501-2.81c-.702 2.106 2.988 3.6 3.33 1.242.342-2.358-2.808-3.51-3.33-1.242Zm33.318-1.403c-2.628 0-2.808 4.051-.522 3.511 1.386-.342 2.088-3.511.522-3.511Zm-48.924-29.447a1.693 1.693 0 0 0 .54 3.328 1.688 1.688 0 0 0 1.279-1.915 1.69 1.69 0 0 0-1.819-1.413Zm-13.624.359a1.808 1.808 0 0 0-1.769 2.646 1.8 1.8 0 0 0 1.236.922 1.816 1.816 0 0 0 1.497-.368 1.807 1.807 0 0 0 .584-1.921 1.814 1.814 0 0 0-1.548-1.279Zm-8.102.701c1.404 2.268 5.076.704 3.33-1.582-2.106-2.448-4.392-.182-3.33 1.582Zm15.301-.269c-3.42-.432-3.402 3.69-.522 3.69 1.404 0 2.106-.522 2.106-1.926.108-1.152-.936-1.674-1.584-1.764Zm10.116-.973c.396 1.926 3.15.882 2.628-.864-.522-1.746-2.952-.72-2.628.864Zm-29.448-3.85c-1.584 0-.882 2.806.522 3.328 2.286.522 2.106-3.328-.522-3.328Zm-.36 15.624c-2.106-.882-3.15 2.628-.864 3.33a1.81 1.81 0 0 0 1.661-1.347 1.804 1.804 0 0 0-.797-1.983Zm12.618 2.609a1.84 1.84 0 0 0-1.358.511 1.851 1.851 0 0 0-.422 2.06 1.861 1.861 0 0 0 1.049 1.003c.233.088.482.127.731.116 2.628 0 3.114-3.69 0-3.69Zm5.977.181c-1.8 1.962 1.566 3.852 3.15 1.8 1.224-1.62-1.008-4.032-3.15-1.8Zm-13.303-1.224a1.518 1.518 0 0 0-1.306.232 1.508 1.508 0 0 0-.62 1.172c-.342 1.224.18 1.926 1.584 2.268 2.646 1.08 3.708-3.258.342-3.672Zm-10.799-3.512c-.702 1.584 2.088 2.97 2.448 1.044.432-1.566-2.196-2.7-2.448-1.044Zm33.568 1.586c-2.466-.18-2.988 3.6-.882 3.15 1.404-.18 2.268-3.15.882-3.15Z"/>
</svg>
