<svg xmlns="http://www.w3.org/2000/svg" width="120" height="14" fill="none" viewBox="0 0 120 14">
  <path fill="#E3B5DF" fill-opacity=".3" d="M119.942 4.99a3.804 3.804 0 0 0-.132-.62.948.948 0 0 0-.124-.261c-.059-.083-.104-.124-.146-.166-.321-.22-.599-.275-.89-.371l-.859-.179-1.714-.234-3.421-.248-6.839-.233-13.68-.138h-35.97c-7.43 0-14.86 0-22.288.124h-2.676c.12-.314.248-.51.38-.578 2.676-1.803.564-2.34-7.428-1.981-1.738.082-3.582 0-5.358 0-4.116-.07-11.04 0-15.196 0-.628 0-1.264.082-1.908.192-.323 0-.646.11-.993.234H.57l-.149.11a.45.45 0 0 0-.104.11H.296L.253.834a3.62 3.62 0 0 0-.082.261 4.435 4.435 0 0 0-.089.482C.03 1.952.002 2.41 0 2.884c-.002.554.032 1.095.094 1.527.025.152.053.29.082.413l.048.165.032.083.067.124c.06.075.12.13.181.165.182.11.343.151.497.192 1.31.317 2.611.386 3.903.454l3.038.152-.805.096-.648.138H5.71v.495h-.06l-.074.138a1.605 1.605 0 0 0-.095.302 6.093 6.093 0 0 0-.127.95c-.02.317-.026.656-.019.99.008.334.029.654.062.936l.141.88h.3v.317h.09l.182-.082.37-.11h.08c18.668.977 37.334.275 56.02-.165h4.325c-.427.275-.67.577-.703.921-.149 1.555 7.257 1.555 11.612 1.624l10.453.152h7.834c.437 0 .875 0 1.317-.124.22 0 .44-.083.673-.18l.189-.096.067-.068h.055c.044-.344.024.578.293-1.445a45.387 45.387 0 0 0-.052-2.05l7.47-.07 6.829-.15 3.418-.18 1.714-.192.862-.179c.144 0 .288-.082.44-.165a.63.63 0 0 0 .27-.206h.038l.054-.124c.06-.137.112-.355.152-.633.174-.014.102-3.564.052-2.89Z"/>
</svg>
