<svg xmlns="http://www.w3.org/2000/svg" width="320" height="320" fill="none" viewBox="0 0 320 320">
  <path fill="#B185A7" d="M271.539 98.476c20.4-.48 18.064-29.296-.32-29.136-21.024 0-19.552 29.6.32 29.136Zm4.672-20.56a2.434 2.434 0 0 1 2.214 4.117 2.443 2.443 0 0 1-1.91.683 2.432 2.432 0 0 1-2.655-1.227 2.44 2.44 0 0 1-.131-2.023 2.435 2.435 0 0 1 2.482-1.55Zm-.624 9.024c1.712-1.232 3.2 1.408.928 3.12-5.92 4.368-11.52 1.408-13.232-1.088-1.248-1.712.608-3.2 2.176-2.176 2.208 1.552 4.672 3.888 10.208.144h-.08Zm-11.696-9.344a2.432 2.432 0 1 1 .32 4.8 2.409 2.409 0 0 1-2.527-1.263 2.415 2.415 0 0 1 .399-2.796 2.428 2.428 0 0 1 1.808-.741Zm-23.824-5.76c-2.336.16-2.336.464-2.336 3.584 0 13.248-2.304 15.584 1.712 15.584 1.872 0 1.872.464 2.336-8.736.704-10.656 1.488-10.72-1.712-10.432Zm-19.328-46.594c-.624-6.688-2.96-11.52-6.688-13.696-7.648-4.368-48.768-5.456-57.504 1.088-5.6 4.208-6.064 11.2-5.92 16.672 0 13.552 3.904 20.4 19.488 20.8-6.544 19.776 12.144 8.256 18.224.144 18.384-1.472 34.272-.384 32.4-25.008Zm-7.312 17.152c-2.816 2.336-13.088 4.512-26.032 4.8a2 2 0 0 0-1.232.624c-4.064 5.92-12.8 10.752-14.192 10.128-.464-.768.624-5.296 1.712-8.88a1.469 1.469 0 0 0-.741-1.717 1.453 1.453 0 0 0-.651-.153c-6.704-.464-11.84-1.392-13.552-2.48-6.864-4.992-6.864-25.088-.16-29.456 7.584-5.68 47.344-4.8 54.064-.928 7.328 3.904 6.08 24.32.784 28.064v-.002Z"/>
  <path fill="#B185A7" d="M196.435 16.22a6.131 6.131 0 0 0-6.08 4.208c-.672 2.16 2.192 4.512 3.584 1.6 1.392-2.912 6.544-1.088 5.616 2.64-.928 3.728-5.76 3.44-6.24 8a1.606 1.606 0 0 0 .36 1.313 1.595 1.595 0 0 0 1.24.56c2.336.16 1.872-1.873 4.208-3.745 7.6-3.824 6.032-14.576-2.688-14.576Zm58.575 41.376c-26.016 1.088-46.112-1.872-55.616 5.92-4.352 3.584-5.6 9.6-5.6 19.312 0 12.624 2.176 23.84 18.528 24.304-5.968 18.864 11.024 8.992 17.296 1.088 23.84 0 56.096-.608 64-3.2 11.376-3.744 13.248-13.248 13.568-21.968.464-10.432-2.192-17.296-7.168-21.808-4.656-4.368-28.48-4.208-45.008-3.648Zm42.848 6.08c7.744 6.288 10.64 32.896-4.976 38.32-6.864 2.336-34.432 3.888-63.104 3.584a4.156 4.156 0 0 0-2.96 1.248 33.97 33.97 0 0 1-10.592 7.792c-.928.336-2.176.144-1.872-1.408 2.56-12.368.72-7.04-9.2-10.432-8.256-2.96-8.256-11.2-8.4-18.704 0-8.56.304-15.728 6.688-19.312 11.072-6.24 23.216-2.96 57.488-4.048 10.448-.256 32.336-.88 36.928 3.024v-.064Z"/>
  <path fill="#B185A7" d="M213.891 93.484a2.27 2.27 0 0 0-2.271 3.178 2.274 2.274 0 0 0 2.271 1.35 2.267 2.267 0 0 0 2.449-2.5 2.273 2.273 0 0 0-2.449-2.028Zm1.712-21.809c-5.456-1.248-2.8 13.408-3.744 17.6-.16 2.176 1.6 2.448 3.28 2.176 1.088-.176.928-.944 1.6-8.576.672-10.752 1.328-10.88-1.136-11.2Zm-79.456 179.521c-11.536-5.92-83.664-9.6-96 .304-5.6 4.528-7.008 12.16-6.688 20.416.304 8.56 2.336 16.976 8.096 20.72 5.76 3.744 34.432 6.704 59.52 6.08 4.208 6.064 14.4 13.088 17.76 11.68 2.336-.928 2.016-3.744.928-12.928 8.256-.944 14.8-2.656 18.24-4.992 12.16-8.448 11.536-34.464-1.856-41.28Zm-74.32 34.112c-18.4.544-19.792-27.568-.304-27.568 16.976-.144 19.152 27.056.304 27.536v.032Zm22.896 1.6a2.414 2.414 0 0 1-2.138-2.4 2.414 2.414 0 0 1 2.138-2.4c3.584-.096 2.96 4.576 0 4.736v.064Zm2.656-10.128c-.16 2.016-1.408 2.496-2.96 2.176-1.248-.16-1.248-1.248-1.248-4.672 0-2.176.464-12.928.624-14.496.16-1.568.624-2.336 2.032-2.176 4.496.432 2.432 2.336 1.552 19.184v-.016Zm8.256 7.792a2.338 2.338 0 0 1 2.256-2.416 2.328 2.328 0 0 1 2.416 2.256 2.341 2.341 0 0 1-3.186 2.225 2.331 2.331 0 0 1-.767-.492 2.333 2.333 0 0 1-.72-1.637v.064h.001Zm4.512-14.656c-.144 9.2 0 9.6-1.856 9.6-3.632 0-2.288-1.2-2.656-17.136-.08-3.44-.16-3.744 2.176-4.048 3.584-.368 2.336.752 2.336 11.52v.064Zm15.28 17.92a2.37 2.37 0 0 1-.784-4.672 2.358 2.358 0 0 1 2.72.899 2.363 2.363 0 0 1 .332 1.959 2.37 2.37 0 0 1-2.268 1.75v.064Zm3.728-12.304c-2.96 2.496-1.872 5.296-3.728 5.456-1.6.144-2.192-.624-2.336-1.712-.48-5.776 7.008-7.168 7.312-12.464.416-8.336-10.272-6.928-10.272-1.872 0 2.016-3.664 2.48-3.744-1.088-.08-3.568 2.944-6.96 7.632-7.328 10.896-.928 14.64 12.704 5.136 18.944v.064Zm117.473-180.64a2.372 2.372 0 0 0 .684 1.751 2.37 2.37 0 0 0 1.746.697 2.349 2.349 0 0 0 2.258-2.608c.144-3.424-4.832-2.48-4.688.16Z"/>
  <path fill="#B185A7" d="M65.41 264.716a2.342 2.342 0 1 0 .304 4.674 2.342 2.342 0 0 0-.303-4.674ZM226.82 71.514c-1.408-.144-1.872.624-2.032 2.032-.16 1.408-.624 11.2-.624 13.248 0 3.104 0 4.048 1.248 4.208 1.712.144 2.96-.16 2.96-2.032.896-15.584 2.496-16.976-1.552-17.456Zm-.753 21.664a2.26 2.26 0 0 0-2.139 1.378 2.258 2.258 0 0 0 2.139 3.133 2.254 2.254 0 0 0 1.556-3.83 2.254 2.254 0 0 0-1.556-.68Zm-46.144-56.382a2.253 2.253 0 0 0-2.161 1.371 2.251 2.251 0 0 0 .511 2.508 2.247 2.247 0 0 0 1.65.63 2.256 2.256 0 0 0 0-4.509Zm-11.056-18.242c-3.2.352-2.128 1.408-2.816 9.6-.144 6.4-.464 6.864.48 7.168 1.6.32 3.424 0 3.584-1.856.8-13.712 2.576-15.392-1.248-14.912Zm-1.104 18.53a2.275 2.275 0 0 0-2.271 1.35 2.262 2.262 0 0 0 0 1.827 2.271 2.271 0 0 0 2.271 1.35 2.272 2.272 0 1 0 0-4.527Zm13.249-19.616c-1.392.145-2.176.465-2.336 1.857-.16 1.392-.432 6.544-.464 8.416 0 4.672-.624 6.4.624 6.703 2.016.304 3.424 0 3.584-1.872.768-13.024 2.576-15.6-1.408-15.104Zm88.959 212.928c-14.64 5.136-36.608 4.8-47.36 1.248-10.752-3.552-5.456-1.872-22.128-12.624-.768 10.752-6.224 12-6.224 12s12.144 2.176 17.44 1.872a16.175 16.175 0 0 1 12.464 5.6c2.816 2.96.784 15.888.784 15.888s1.232-5.056 5.616-5.92c4.384-.864 8.88 6.864 11.2 8 2.32 1.136 3.2-.784 10.272-4.048 26.96-1.712 41.6 11.84 47.376 22.896a58.334 58.334 0 0 0-15.28-52.8s.64 2.784-14.16 7.888Zm-180.56-4c7.008 6.848 17.136 14.176 14.016-.944 6.4-.928 11.68-2.496 14.016-4.8 6.08-6.224 5.776-26.944-3.2-32.24-7.488-4.368-51.424-6.08-59.2 1.856-3.44 3.584-5.152 9.04-4.992 15.584-.848 22.256 15.2 19.44 39.36 20.544Zm-5.616-23.376c0-10.672-.304-10.8 2.64-10.432 2.192.256 2.112.608 2.032 3.728-.384 15.2.208 15.584-2.96 15.584-1.84 0-1.84.464-1.712-8.88Zm-.464 12.8a2.331 2.331 0 0 1 2.416-2.256 2.314 2.314 0 0 1 1.629.741 2.325 2.325 0 0 1 .627 1.675c-.464 3.216-4.992 2.928-4.672-.192v.032Zm-10.128-6.224c0-16.72-.432-17.184 3.12-17.6 1.392-.16 1.856.624 1.856 2.016s-.464 11.376-.624 13.408c-.144 3.104-.304 4.064-1.6 4.192-1.664.16-2.912-.176-2.752-2.016Zm1.872 4.208a2.252 2.252 0 0 1 1.7.702 2.272 2.272 0 0 1-2.02 3.81 2.286 2.286 0 0 1-2-1.551 2.277 2.277 0 0 1 2.32-2.993v.032Zm-12.16-19.952c0-1.6.464-1.856 1.872-2.016 4.8-.592 2.464 5.952 2.176 17.44 0 2.192-1.696 2.464-3.424 2.192-1.392-.272-.672-1.728-.672-17.648l.048.032Zm1.712 19.792c3.12.16 2.656 4.368-.464 4.368-3.424-.032-2.496-4.704.464-4.4v.032Zm.319 60.88c-4.528 2.816-6.24 1.104-7.632-.304-3.568-3.568-4.8 3.2 1.712 4.672 3.728.784 8.88-1.6 7.632-4.368-.16-.624-.944-.624-1.712 0ZM195.043 36.156a2.255 2.255 0 1 0-.17 4.508 2.255 2.255 0 0 0 .17-4.508Zm-25.712 160.481a140.283 140.283 0 0 1 16.512-3.282l.464-6.542c.16 0-8-.77-24 2.03.48.16 2.192 1.25 7.024 7.794Zm.16-103.761s-8.576 5.44-15.28-2.352c-6.4-7.472-3.104-20.24-9.504-33.024-9.808-22.752-32.72-26.336-44.8-21.344-17.6-5.296-51.567-6.704-64.496 21.344-4.064 9.344-1.872 31.168-2.495 37.232-.464 5.152-2.656 9.6-8.736 10.912-8.992 1.92.544 26.704 18.24 27.104 7.471 0 10.271-8.096 12.623-18.224 2.352-10.128-1.248-32.4-1.248-38.944 0-6.544 5.872-13.088 12.272-17.984 10.433-7.632 36.144 1.088 39.264-13.872 6.544 11.536 21.184 2.656 28.192 13.408 3.28 4.976 3.744 19.2 4.368 26.944.624 7.744-.32 13.408-3.744 21.968 5.296 3.2 4.672 10.592 4.672 10.592s2.816.16 13.712 1.088c17.888-8.928 16.96-24.848 16.96-24.848ZM55.907 270.012a2.365 2.365 0 0 0 2.273-1.551 2.346 2.346 0 0 0-1.622-3.077 2.353 2.353 0 0 0-.97-.044 2.34 2.34 0 0 0-1.004 4.366 2.34 2.34 0 0 0 1.324.306Z"/>
  <path fill="#001434" d="M273.396 176.38a21.903 21.903 0 0 0-15.568-5.616c-3.904 0-4.208 3.904-1.712 3.744a24.558 24.558 0 0 1 16 5.92c2.064 1.712 3.776-1.712 1.28-4.048Zm-49.073 30.848c2.656 1.872-2.384 4.72 0 7.472 3.968 4.592 27.888 7.632 24.624-7.472-1.6-7.632-11.536 1.392-23.536-4.8-3.888-2.064-4.144 2.624-1.088 4.8Zm-75.056-84.607a7.853 7.853 0 0 1-2.032 0c-3.696-.528-1.488-1.84-10.912 3.2-1.408.752-4.8 2.336-3.568 3.424 1.232 1.088.144 1.408-.48 1.712-6.064 3.2-11.84 1.6-21.488.32-2.032-.32-2.352 2.496 3.2 3.584 7.328 1.6 13.712 3.2 23.216-3.424a1.453 1.453 0 0 0 .629-1.293 1.454 1.454 0 0 0-.789-1.203c2.176-1.248 3.712-2.24 5.92-3.28 2.208-1.04 2.512 2.752 9.6-2.016 2.128-1.024 1.216-2.64-3.296-1.024ZM64.468 77.597c1.232 5.776 5.92 7.488 11.36 7.328 8.416-.16 16.672-2.032 16.528-11.2.016-21.328-31.344-12.592-27.888 3.872Zm5.136-7.632c2.96-4.368 12.8-6.4 15.888-3.424-2.8 4.512-6.08 9.968-9.04 14.4-8.4 1.024-10.88-5.216-6.832-10.976h-.016Z"/>
  <path fill="#001434" d="M28.02 130.734c-4.8 22.592-1.089 49.696 31.471 47.36 13.712-.944 30.224-5.296 50.48-11.84 6.224-2.032 10.896-3.744 15.264-7.328 4.048 4.528 13.712 8.256 21.344 8.112 26.8-.48 36.144-33.04 18.08-55.776 4.8-5.936 9.184-14.96 6.688-19.488-1.728-3.04-7.52.88-11.2-5.76-4.208-11.376-4.512-24-12.304-37.552-9.808-17.136-33.6-26.976-55.616-21.488a17.9 17.9 0 0 1-6.24-.48c-18.848-3.2-37.232 1.872-49.072 14.032-15.744 16.192-11.68 33.488-12.304 51.2-.16 5.456-4.528 7.168-8.88 6.24-1.248-.32-3.744-.944-4.8.624-4.88 7.008 4.304 27.152 17.088 32.144Zm16.207 41.28c-15.904-5.76-15.28-31.008-12.624-39.888a38.317 38.317 0 0 0 5.6 1.712c-2.8 12.16.784 39.584 30.08 39.888-9.824 1.088-16.832.464-23.056-1.712Zm22.4-109.056c3.36 2.592 5.904-6.64 18.848-3.2 2.368.672 7.024-2.624-.784-4.048 7.168-.624 19.328-1.6 21.344-8.88a13.373 13.373 0 0 0 9.504 5.616c-8.592.896-7.088 6.208-3.888 5.136 6.08-2.496 15.424-2.8 19.2 0a8.828 8.828 0 0 1 2.416 5.216c-2.64-3.424-5.136-4.512-11.52-4.512-7.328 0-15.424 4.352-14.64 13.088-4.992-2.192-10.128-.16-11.696 2.96-1.568 3.12.624 3.888 1.872 2.64 4.176-4.8 13.504-2.112 11.68 5.152-.144 1.088.32 2.016 1.408 2.016 1.088 0 2.496-2.336 2.496-4.048 8.096 2.176 22.752.624 21.504-10.128 2.336 14.8 2.8 30.224-1.408 34.272-8.816-2.48-17.696 4.56-18.896 9.36h-2.96c-4.048-3.744-14.64-3.2-21.184.144-15.28.784-27.2-6.544-32.096-11.984.624-13.568-6.544-35.68 9.184-41.296-.816.784-.944 2.016-.352 2.496h-.032Zm64 8c0 3.104-1.712 3.728-4.368 4.672-4.208-3.584-8.88-7.328-13.392-10.592 2.176-2.656 12.304-4.368 14.96-1.872a11.552 11.552 0 0 1 2.864 7.744l-.064.048Zm6.544 45.648c-1.296 4.208-11.2 4.8-12-.48-.624-2.8-2.96-2.48-6.848-2.8 1.392-3.584 7.008-6.4 11.84-6.08 4.112.272 8.768 3.744 7.072 9.312l-.064.048Zm-59.68 6.848c-5.92 1.248-12.8 2.496-16 2.96-3.2.464-3.744-1.6-1.872-2.176a413.475 413.475 0 0 1 4.672-1.408c-1.6-3.12-4.368-5.6-2.496-5.92 1.872-.32 3.584 2.032 5.616 4.992 13.824-2.352 11.904 1.008 10.144 1.504l-.064.048Zm43.632 33.6c-3.424-.624-9.2-2.336-9.344-2.336-2.336-.768-4.208 2.96 4.352 5.152-20.256 8.72-36.912 3.104-36.448-20.8 0-20.128 16.912-28.8 28.512-23.056 2.496 1.248 3.2 6.544 1.392 8.56-2.8 3.2-8.368.304-8.88 6.24-1.6 18.352 16.992 14.96 28.512 15.888a19.395 19.395 0 0 1-8.032 10.352h-.064Zm28.976-12.464c-1.6-.816-2.944-3.6-4.208-1.712-.928 1.408.32 3.904 1.712 4.8a26.533 26.533 0 0 1-7.472 5.136 32.907 32.907 0 0 1-2.064-2.928c-.624-.928-3.744-.768-1.872 4.064a26.447 26.447 0 0 1-6.864.768 20.154 20.154 0 0 0 3.936-8.56c6.704-1.408 14.816-7.168 20.8-10.128a21.34 21.34 0 0 1-3.904 8.56h-.064Zm-5.6-7.792c-9.472 5.424-13.088 6.4-27.744 5.616-7.168-.464-12.8-2.032-12-11.536 0-.464.48-.768.944-.928 6.544-1.088 10.592-4.512 8.096-12.928 2.192-.32 6.544-.464 7.792.768 1.872 6.4 14.688 8.592 18.704.944 17.216.912 17.024 1.696 17.136 6.848.144 3.904-2.4 5.232-12.864 11.216h-.064Zm-129.168-35.04c25.168 4.192 2.528-38.048 24-58.432C50.707 32.414 67.475 27.582 84.98 30.398a20.7 20.7 0 0 0 7.792.304c20.4-4.672 42.528 3.744 51.408 19.632a84.2 84.2 0 0 1 9.04 26.64c4.8 25.712 18.032 11.6 14.4 21.968a29.702 29.702 0 0 1-15.152 16.672c-2.8-.464-6.544-.624-11.376-.928a11.201 11.201 0 0 0-4.352-9.36c6.4-8.88 2.016-34.112.624-42.208-1.872-10.752-7.488-13.872-17.92-14.032-7.328-.144-9.6-4.208-13.088-9.04-6.4-9.008-11.968-6.24-8-3.424 8.416 4.992 4.528 13.872-5.6 14.4-27.456 2.8-42.496 6.08-39.584 33.6 2.816 28.672-2.64 45.344-7.632 45.808-18.288 1.904-32.272-14.144-32.272-26.96 0-2.336 1.04-1.872 2.128-1.712h-.064Zm183.537 137.565c-18.528-1.424-20-2.176-19.792 12 0 7.152-.304 10.433 7.024 11.057 14.64 1.088 18.224 2.495 18.688-8.417.688-12 .368-14.176-5.92-14.64Zm-12.464 19.633a3.536 3.536 0 0 1-3.053-2.457 3.532 3.532 0 0 1 1.985-4.299 3.526 3.526 0 0 1 1.692-.268 3.548 3.548 0 0 1 2.611 1.128 3.55 3.55 0 0 1 .523 4.083 3.535 3.535 0 0 1-3.694 1.813h-.064Zm.928-10.448a3.446 3.446 0 0 1-2.833-5.06 3.46 3.46 0 0 1 .874-1.055 3.425 3.425 0 0 1 2.583-.734c4.736-.064 4.592 7.313-.56 6.849h-.064Zm9.2 6.4a3.752 3.752 0 0 1-.83-7.309 3.767 3.767 0 0 1 1.454-.164 3.8 3.8 0 0 1 1.541.276 3.787 3.787 0 0 1 2.118 2.213 3.752 3.752 0 0 1-1.243 4.247 3.739 3.739 0 0 1-2.976.72l-.064.017Z"/>
  <path fill="#001434" d="M83.667 91.629c-3.424 10.896 4.672 13.392 14.8 13.232 9.6-.144 16.208-2.336 14.176-12.928-.624-3.424-2.8-3.744-4.976-3.2-11.568 3.056-20.912-7.376-24 2.896Zm23.056.928c1.872-.304 2.192.16 2.336 1.6.32 2.336 0 4.064-.928 4.8-1.712 2.336-21.04 4.048-21.184-2.176 1.6.624 4.352.928 4.976-.464.944-2.032-2.48-1.6-4.672-3.584.944-3.2 2.352-2.08 4.528-1.6 4.192 1.024 9.936 2.672 14.912 1.424h.032Zm57.936 146.446c2.056.331 4.144.438 6.224.32-1.248 13.856-.768 24.304-.928 43.616-.16 14.8 4.048 18.24 12.464 19.472 16.352 2.336 20.8 2.96 30.224 2.336 8.416 7.648 21.968 8.416 33.6 6.08 22.752-4.8 46.112-9.504 56.24-26.176 10.128-17.44 4.688-46.4-8.096-63.408 14.176-1.392 20.096-8.88 15.264-18.064-8.416-19.2 2.608-41.888-20.72-59.2-16.304-12.112-58.112-19.472-73.696-12.464-12.8 5.92-16 15.424-17.904 22.128-6.704 2.656-11.536 16.832-8 23.52a24.548 24.548 0 0 0-3.888 5.616c-64.416-14.192-73.456 66.192-20.784 56.224Zm19.808-52.496a36.496 36.496 0 0 0-.768 4.976 41.838 41.838 0 0 0-13.408 2.192 23.647 23.647 0 0 0-9.184-7.488 59.132 59.132 0 0 1 23.36.32Zm-18.528 40.192c0 .784 1.6 4.992 6.544 8.72-6.704.944-16-.928-19.632-9.968-.48-.928-1.408-1.6-2.032-.464-2.176 3.12 3.744 10.432 6.24 11.376-30.704.768-28.208-39.888-2.192-48.304a22.614 22.614 0 0 1 11.536 7.168c-4.208 1.6-7.632 4.512-7.488 7.008a1.359 1.359 0 0 0 .757 1.228 1.354 1.354 0 0 0 1.435-.14c11.488-11.104 43.616-11.52 36.144 5.616-1.408-1.6-3.424-5.616-5.76-5.296-1.104.16-1.104 1.872-.48 2.64 8.416 12.464 10.752 23.68.944 23.216-4.672-.304-10.064-6.4-15.888-15.568-.608-.96-1.6-1.408-2.192-.624-2.8 3.584 8.256 14.8 9.04 15.424a11.056 11.056 0 0 0-7.792 3.104c-3.584-1.088-5.92-5.136-7.008-7.472-.816-1.552-3.152-.784-2.208 2.336h.032Zm17.28 71.824c-11.088-1.6-9.424-5.152-8.72-54.224-.304-5.92 2.8-13.088 10.288-11.84 36.512 3.664 39.824-.416 38.64 20.576a14.802 14.802 0 0 0-.944 3.728c-.736 5.168-22.224.208-19.008 28.512a31.662 31.662 0 0 0 6.08 15.744c-4.544.16-12.032-.32-26.368-2.496h.032Zm16.672-68.56a9.303 9.303 0 0 0 2.496-6.4 63.033 63.033 0 0 0 14.656 8.256c-5.376-1.232-11.408-1.232-17.184-1.856h.032Zm99.568 52.976c-2.032 2.656-5.776 9.504-20.256 14.96a203.718 203.718 0 0 1-33.344 9.04c-12.928 2.336-22.896 1.088-29.92-4.672 3.28-.944 8.88-1.408 9.6-4.528.32-1.392-1.408-1.6-2.336-1.248a86.775 86.775 0 0 1-10.432 2.496 26.934 26.934 0 0 1-5.456-14.016c14.928-.832 14.176-6.976 10.272-5.76a32.478 32.478 0 0 1-10.592 1.856c-.768-22.272 17.76-13.552 19.328-23.824.624-3.744 2.176-6.4 4.352-6.704 5.776-.944 6.24 7.312 10.448 8.416 2.016.464 5.92-1.248 12.304-4.992 28.08 3.28 46.464 17.6 46 28.976h.032Zm2.64-6.224c-4.8-12.464-24.464-23.68-48.144-26.496a19.94 19.94 0 0 1-3.104-5.6c-.336-.928-1.744-1.888-2.496-1.088-1.76 1.824 1.088 6.4 1.712 8a69.744 69.744 0 0 1-7.792 3.424c-4.048-6.064-9.6-10.272-14.96-7.008 0-5.6.32-11.056-6.224-14.48 22.736 7.792 57.488 1.392 67.92-13.248 12.256 13.488 18.656 38.976 13.056 56.576l.032-.08Zm-85.056-135.088c-.16 3.904 1.088 8.736 5.6 9.6 8.096 1.872 17.6-12.8 19.792-7.792 1.712 3.904-2.336 10.288 3.888 13.088 7.792 3.584 21.344-14.8 20.256-2.496-.928 9.824 7.328 10.592 14.016 5.776 2.496-1.712 4.8-1.856 5.776-1.104 3.824 3.056-5.92 20.416-.624 28.992a29.276 29.276 0 0 0-5.296 0c5.92-23.536-29.456-33.504-38.4-12.32a10.643 10.643 0 0 0-14.384-2.736c1.088-14.8-11.072-22.896-25.248-20.8 6.32-12.544 14.592-10.208 14.592-10.208h.032Zm27.104 41.136c2.8-25.6 42.688-15.888 30.848 8.88a12.222 12.222 0 0 0-1.6-6.544c-2.848-4.704-24.224-12.464-29.28-2.336h.032Zm26.016 13.872c-2.496 2.8-6.4 1.872-9.968 1.712-2.336-5.456-5.152-11.536-7.632-16.672 6.064-.624 16.192 2.96 17.76 5.456 1.568 2.496.896 7.936-.192 9.504h.032Zm-53.696-38.96a61.509 61.509 0 0 0-11.056-.304c-4.672.624-4.048 4.512-1.408 4.208 6.08-.784 14.4-.784 18.384 2.64a20.474 20.474 0 0 1 1.248 5.776c-4.512-2.96-16.352-6.544-23.84-2.656-2.96 1.6-5.44 6.08-5.92 10.432-5.072-10.288 1.216-28.672 22.592-20.096Zm2.496 14.032c-4.672 4.048-10.288 9.344-14.96 13.712-8.88-1.6-7.376-11.792-2.336-14.96 4.688-2.896 13.472-.16 17.36 1.248h-.064Zm-27.504 9.088c5.76 8.416 15.888 10.752 25.856 8.88.16 5.616 7.472 7.168 10.128 7.024 2.96-.16 4.048-2.816 1.712-2.96-2.336-.144-6.4-1.248-7.328-2.656-2.336-3.584-.464-8.72 3.44-9.504 3.904-.784 4.976.32 6.064.32 2.192.144 2.816-4.368-3.2-4.368 2.016-4.672 12.8-3.584 12.144 4.672-1.104 14.864 8.688 19.808 23.216 20.256 7.168.304 12.624-2.96 15.744-10.592 19.2-3.744 16.672 17.6 4.048 28.512-16 16.672-64 16.672-81.952-2.96a33.533 33.533 0 0 0-2.176-5.152c7.536-11.104-1.12-20.608-11.84-20.8a20.005 20.005 0 0 1 4.144-10.672Z"/>
</svg>
